<?xml version="1.0" encoding="utf-8"?>
<svg id="master-artboard" viewBox="0 0 1400 980" version="1.1" xmlns="http://www.w3.org/2000/svg" x="0px" y="0px" style="enable-background:new 0 0 336 235.2;" width="1400px" height="980px"><rect id="ee-background" x="0" y="0" width="1400" height="980" style="fill: white; fill-opacity: 0; pointer-events: none;"/><defs><style id="ee-google-fonts">@import url(https://fonts.googleapis.com/css?family=Audiowide:400);</style><linearGradient id="linear-gradient" x1="0.5" x2="0.5" y2="1" gradientUnits="objectBoundingBox">
      <stop offset="0" stop-color="#33c8c1"/>
      <stop offset="1" stop-color="#119bd2"/>
    </linearGradient></defs>

<g transform="matrix(4.198465824127197, 0, 0, 4.198465824127197, -5, -4)">
		<path d="M 0 0 H 336 V 235.199997 H 0 V 0 Z" class="st0" style="fill: rgb(56, 52, 75);"/>
	</g>
<path class="st1" d="M72.2,234.6h192.3c30.6-26.7,50-66,50-109.7c0-52.8-28.2-99-70.4-124.6H92.6C50.4,25.9,22.2,72.1,22.2,124.9&#10;&#9;&#9;C22.2,168.7,41.6,207.9,72.2,234.6z" style="fill: rgb(66, 62, 89);" transform="matrix(4.198465824127197, 0, 0, 4.198465824127197, -5, -4)"/>
<path d="M 278.399994 124.599998 A 110 110 0 0 1 168.399994 234.599998 A 110 110 0 0 1 58.399994 124.599998 A 110 110 0 0 1 168.399994 14.599998 A 110 110 0 0 1 278.399994 124.599998 Z" class="st2" style="fill: rgb(74, 69, 99);" transform="matrix(4.198465824127197, 0, 0, 4.198465824127197, -5, -4)"/>
<path class="st3" d="M91,122.8C91,122.9,91,122.9,91,122.8c0,42.8,34.6,77.4,77.4,77.4s77.4-34.6,77.4-77.4c0,0,0,0,0-0.1H91z" style="fill: rgb(250, 116, 52);" transform="matrix(4.198465824127197, 0, 0, 4.198465824127197, -5, -4)"/>
<path class="st4" d="M98.9,157.1c12.6,25.6,39,43.2,69.4,43.2s56.8-17.6,69.4-43.2H98.9z" style="fill: rgb(252, 171, 15);" transform="matrix(4.198465824127197, 0, 0, 4.198465824127197, -5, -4)"/>
<path class="st3" d="M118,181.6c13.5,11.6,31.1,18.7,50.4,18.7c19.2,0,36.8-7,50.4-18.7H118z" style="fill: rgb(250, 116, 52);" transform="matrix(4.198465824127197, 0, 0, 4.198465824127197, -5, -4)"/>
<path class="st5" d="M236.9,123.5h-3c0-36.1-29.4-65.5-65.5-65.5c-36.1,0-65.5,29.4-65.5,65.5h-3c0-37.8,30.7-68.5,68.5-68.5&#10;&#9;&#9;C206.1,55,236.9,85.7,236.9,123.5z" style="fill: rgb(248, 233, 211);" transform="matrix(4.198465824127197, 0, 0, 4.198465824127197, -5, -4)"/>
<path class="st5" d="M168.4,211.7c-48.7,0-88.2-39.6-88.2-88.2c0-48.7,39.6-88.2,88.2-88.2c48.7,0,88.2,39.6,88.2,88.2&#10;&#9;&#9;C256.6,172.2,217,211.7,168.4,211.7z M168.4,38.3c-47,0-85.2,38.2-85.2,85.2c0,47,38.2,85.2,85.2,85.2c47,0,85.2-38.2,85.2-85.2&#10;&#9;&#9;C253.6,76.5,215.4,38.3,168.4,38.3z" style="fill: rgb(248, 233, 211); opacity: 0.3;" transform="matrix(4.198465824127197, 0, 0, 4.198465824127197, -5, -4)"/>
<path class="st5" d="M265.2,121.6c-0.6,0-1-0.4-1-1c0-14.8-3.7-29.4-10.7-42.2c-2.8-5.2-6.2-10.2-10.1-14.8&#10;&#9;&#9;c-0.4-0.4-0.3-1.1,0.1-1.4c0.4-0.4,1.1-0.3,1.4,0.1c3.9,4.7,7.4,9.8,10.3,15.1c7.2,13.2,10.9,28.1,10.9,43.2&#10;&#9;&#9;C266.2,121.2,265.8,121.6,265.2,121.6z" style="fill: rgb(248, 233, 211);" transform="matrix(4.198465824127197, 0, 0, 4.198465824127197, -5, -4)"/>
<path class="st5" d="M169.7,222.1c-13.7,0-26.9-2.7-39.3-8c-17.8-7.6-33-20.1-43.9-36.2c-11.3-16.7-17.3-36.2-17.3-56.4&#10;&#9;&#9;c0-0.6,0.4-1,1-1c0.6,0,1,0.4,1,1c0,19.8,5.9,39,17,55.3c10.7,15.8,25.6,28,43.1,35.4c12.2,5.2,25.2,7.8,38.6,7.8&#10;&#9;&#9;c14.1,0,27.7-2.9,40.4-8.6c0.5-0.2,1.1,0,1.3,0.5c0.2,0.5,0,1.1-0.5,1.3C198,219.1,184.1,222.1,169.7,222.1z" style="fill: rgb(248, 233, 211);" transform="matrix(4.198465824127197, 0, 0, 4.198465824127197, -5, -4)"/>
<path class="st7" d="M168.4,15c0,0-3.5,0-6.7,6.6c-3.2,6.6-8.8,29.1-10.8,37.1c-2,8-6.4,14.3-16.5,18.1s-12.6,9.4-12.6,11.6h46.6" style="fill: rgb(255, 216, 186);" transform="matrix(4.198465824127197, 0, 0, 4.198465824127197, -5, -4)"/>
<path class="st7" d="M168.4,15c0,0,3.5,0,6.7,6.6c3.2,6.6,8.8,29.1,10.8,37.1c2,8,6.4,14.3,16.5,18.1c10.2,3.8,12.6,9.4,12.6,11.6&#10;&#9;&#9;h-46.6" style="fill: rgb(255, 216, 186);" transform="matrix(4.198465824127197, 0, 0, 4.198465824127197, -5, -4)"/>
<path d="M 161.800003 31.9 L 159.199997 39.099998 L 161.800003 38.099998 L 168.399994 38.099998 L 168.399994 31.9" class="st8" style="fill: rgb(154, 84, 72);" transform="matrix(4.198465824127197, 0, 0, 4.198465824127197, -5, -4)"/>
<path d="M 174.899994 31.9 L 177.600006 39.099998 L 174.899994 38.099998 L 168.399994 38.099998 L 168.399994 31.9" class="st8" style="fill: rgb(154, 84, 72);" transform="matrix(4.198465824127197, 0, 0, 4.198465824127197, -5, -4)"/>
<path d="M 121.800003 88.300003 H 215 V 93.900003 H 121.800003 V 88.300003 Z" class="st9" style="fill: rgb(248, 122, 50);" transform="matrix(4.198465824127197, 0, 0, 4.198465824127197, -5, -4)"/>
<path d="M 159.199997 43.900002 H 177.599997 V 101.900002 H 159.199997 V 43.900002 Z" class="st5" style="fill: rgb(248, 233, 211);" transform="matrix(4.198465824127197, 0, 0, 4.198465824127197, -5, -4)"/>
<path d="M 159.199997 101.800003 H 177.599997 V 106.400003 H 159.199997 V 101.800003 Z" class="st9" style="fill: rgb(248, 122, 50);" transform="matrix(4.198465824127197, 0, 0, 4.198465824127197, -5, -4)"/>
<path d="M 137.800003 79.900002 H 138.900003 V 88.600001 H 137.800003 V 79.900002 Z" class="st9" style="fill: rgb(248, 122, 50);" transform="matrix(4.198465824127197, 0, 0, 4.198465824127197, -5, -4)"/>
<path d="M 141.800003 79.900002 H 142.900003 V 88.600001 H 141.800003 V 79.900002 Z" class="st9" style="fill: rgb(248, 122, 50);" transform="matrix(4.198465824127197, 0, 0, 4.198465824127197, -5, -4)"/>
<path d="M 145.800003 77 H 146.900003 V 88.5 H 145.800003 V 77 Z" class="st9" style="fill: rgb(248, 122, 50);" transform="matrix(4.198465824127197, 0, 0, 4.198465824127197, -5, -4)"/>
<path d="M 149.800003 72.800003 H 150.900003 V 88.500003 H 149.800003 V 72.800003 Z" class="st9" style="fill: rgb(248, 122, 50);" transform="matrix(4.198465824127197, 0, 0, 4.198465824127197, -5, -4)"/>
<path d="M 197.300003 79.900002 H 198.400003 V 88.600001 H 197.300003 V 79.900002 Z" class="st9" style="fill: rgb(248, 122, 50);" transform="matrix(4.198465824127197, 0, 0, 4.198465824127197, -5, -4)"/>
<path d="M 193.300003 79.900002 H 194.400003 V 88.600001 H 193.300003 V 79.900002 Z" class="st9" style="fill: rgb(248, 122, 50);" transform="matrix(4.198465824127197, 0, 0, 4.198465824127197, -5, -4)"/>
<path d="M 189.300003 77 H 190.400003 V 88.5 H 189.300003 V 77 Z" class="st9" style="fill: rgb(248, 122, 50);" transform="matrix(4.198465824127197, 0, 0, 4.198465824127197, -5, -4)"/>
<path d="M 185.300003 72.800003 H 186.400003 V 88.500003 H 185.300003 V 72.800003 Z" class="st9" style="fill: rgb(248, 122, 50);" transform="matrix(4.198465824127197, 0, 0, 4.198465824127197, -5, -4)"/>
<g transform="matrix(4.198465824127197, 0, 0, 4.198465824127197, -5, -4)">
		<path class="st10" d="M306.9,51.6c-2.1-4.3-5.6-7.7-9.9-9.8c-3,0.8-5.9,2.1-8.5,3.9c-1.6,1.1-3.4,2.4-4.8,3.7&#10;&#9;&#9;&#9;c-1.6,1.6-2.9,2.9-4.8,4.2c-1.9,1.3-4,2.9-6.1,4c-1.6,0.5-3.4,1.1-5,1.3c-0.2,0-0.4,0.1-0.5,0.1c-0.1,0.6-0.1,1.2-0.1,1.9&#10;&#9;&#9;&#9;c0,1.1,0.1,2.3,0.3,3.3c2.3-0.7,4.9-1.7,7.6-3.3C282.3,56.8,295.5,53.7,306.9,51.6z M291.6,45.9c3.6-1.4,7-1,7.8,0.9&#10;&#9;&#9;&#9;c0.7,1.9-1.5,4.5-5.1,5.9c-3.6,1.4-7,1-7.8-0.9C285.8,49.9,288.1,47.3,291.6,45.9z" style="fill: rgb(250, 139, 79);"/>
	</g><path class="st10" d="M289.5,39.8c-0.5,0-1-0.1-1.4-0.1c-0.8,0-1.6,0-2.4,0.1c0.8-0.1,1.6-0.1,2.4-0.1&#10;&#9;&#9;&#9;C288.6,39.8,289.1,39.8,289.5,39.8z" style="fill: rgb(250, 139, 79);" transform="matrix(4.198465824127197, 0, 0, 4.198465824127197, -5, -4)"/><path class="st10" d="M282.7,40.5c-4.9,1.3-9.2,4.4-12,8.6c1.9-0.9,3.7-2.2,5.3-3.4C278.3,44.1,280.5,42.3,282.7,40.5z" style="fill: rgb(250, 139, 79);" transform="matrix(4.198465824127197, 0, 0, 4.198465824127197, -5, -4)"/><path class="st10" d="M308.5,65.4c0.3-1.5,0.5-3,0.5-4.6c0-0.9-0.1-1.7-0.2-2.6c-13.6,1.1-22.2,6.9-35.6,12.4&#10;&#9;&#9;&#9;c-1.1,0.4-2.1,0.8-3,1.1c1.3,2.2,3,4.1,5,5.6c3.4-0.4,7.1-1.1,10.9-2.2C300.8,70.9,299.1,65.9,308.5,65.4z M281.7,71.8&#10;&#9;&#9;&#9;c-0.7-1.9,1.5-4.5,5.1-5.9c3.6-1.4,7-1,7.8,0.9c0.7,1.9-1.5,4.5-5.1,5.9C285.9,74.1,282.4,73.7,281.7,71.8z" style="fill: rgb(250, 139, 79);" transform="matrix(4.198465824127197, 0, 0, 4.198465824127197, -5, -4)"/><path class="st11" d="M308.5,65.4c-9.4,0.5-7.7,5.5-22.5,9.7c-3.8,1.1-7.5,1.8-10.9,2.2c3.6,2.8,8,4.5,12.9,4.5&#10;&#9;&#9;&#9;C298.1,81.9,306.4,74.8,308.5,65.4z" style="fill: rgb(227, 126, 72);" transform="matrix(4.198465824127197, 0, 0, 4.198465824127197, -5, -4)"/><path class="st11" d="M308.9,58.2c-0.3-2.4-1-4.6-2-6.7c-11.4,2.1-24.6,5.3-31.9,9.4c-2.7,1.5-5.3,2.6-7.6,3.3&#10;&#9;&#9;&#9;c0.4,2.7,1.4,5.3,2.8,7.6c1-0.3,2-0.7,3-1.1C286.6,65.2,295.3,59.4,308.9,58.2z" style="fill: rgb(227, 126, 72);" transform="matrix(4.198465824127197, 0, 0, 4.198465824127197, -5, -4)"/><path class="st12" d="M294.6,66.8c-0.7-1.9-4.2-2.3-7.8-0.9c-3.6,1.4-5.8,4-5.1,5.9c0.7,1.9,4.2,2.3,7.8,0.9&#10;&#9;&#9;&#9;C293,71.3,295.3,68.7,294.6,66.8z" style="fill: rgb(199, 110, 63);" transform="matrix(4.198465824127197, 0, 0, 4.198465824127197, -5, -4)"/><path class="st11" d="M294.3,52.7c3.6-1.4,5.8-4,5.1-5.9c-0.7-1.9-4.2-2.3-7.8-0.9c-3.6,1.4-5.8,4-5.1,5.9&#10;&#9;&#9;&#9;C287.2,53.7,290.7,54.1,294.3,52.7z" style="fill: rgb(227, 126, 72);" transform="matrix(4.198465824127197, 0, 0, 4.198465824127197, -5, -4)"/><path class="st13" d="M282.8,40.4c0,0-0.1,0.1-0.1,0.1c1-0.3,2-0.5,3-0.6C284.7,40,283.8,40.2,282.8,40.4z" style="fill: rgb(235, 213, 105);" transform="matrix(4.198465824127197, 0, 0, 4.198465824127197, -5, -4)"/><path class="st11" d="M272.8,57.6c2.1-1.1,4.2-2.7,6.1-4c1.9-1.3,3.2-2.7,4.8-4.2c1.3-1.3,3.2-2.7,4.8-3.7&#10;&#9;&#9;&#9;c2.6-1.8,5.5-3.1,8.5-3.9c-2.3-1.1-4.8-1.8-7.5-1.9c-0.5,0-0.9,0-1.4,0c-0.8,0-1.6,0-2.4,0.1c-1,0.1-2,0.3-3,0.6&#10;&#9;&#9;&#9;c-2.2,1.9-4.4,3.6-6.7,5.2c-1.6,1.2-3.4,2.5-5.3,3.4c-1.9,2.9-3.2,6.3-3.5,9.9c0.2,0,0.4,0,0.5-0.1&#10;&#9;&#9;&#9;C269.4,58.6,271.2,58.1,272.8,57.6z" style="fill: rgb(227, 126, 72);" transform="matrix(4.198465824127197, 0, 0, 4.198465824127197, -5, -4)"/>
<path d="M 297.399988 56.5 A 13.1 13.1 0 0 1 284.299988 69.6 A 13.1 13.1 0 0 1 271.199987 56.5 A 13.1 13.1 0 0 1 284.299988 43.4 A 13.1 13.1 0 0 1 297.399988 56.5 Z" class="st15" style="fill: rgb(255, 255, 255); opacity: 0.1;" transform="matrix(4.198465824127197, 0, 0, 4.198465824127197, -5, -4)"/>
<path d="M294.8,43.3c3.9,3.2,6.4,7.9,6.4,13.2c0,9.5-7.9,17.2-17.7,17.2c-5.5,0-10.3-2.4-13.6-6.2c2.7,7.3,9.9,12.5,18.3,12.5&#10;&#9;&#9;c10.7,0,19.5-8.5,19.5-18.9C307.6,52.9,302.3,45.9,294.8,43.3z" transform="matrix(4.198465824127197, 0, 0, 4.198465824127197, -5, -4)" style="opacity: 0.08;"/>
<g transform="matrix(4.198465824127197, 0, 0, 4.198465824127197, -5, -4)">
		<path d="M 83.000002 45.099998 A 28.6 28.799999 0 0 1 54.400002 73.899998 A 28.6 28.799999 0 0 1 25.800001 45.099998 A 28.6 28.799999 0 0 1 54.400002 16.299999 A 28.6 28.799999 0 0 1 83.000002 45.099998 Z" class="st17" style="fill: rgb(255, 230, 115);"/>
	</g>
<g transform="matrix(4.198465824127197, 0, 0, 4.198465824127197, -5, -4)">
		<path class="st13" d="M36.6,22.5c-2.4,1.9-4.5,4.3-6.2,6.9c6.1,0.1,13.6,0.9,21.7,3.2c19.4,5.6,14.3,12.3,31.1,11.2&#10;&#9;&#9;&#9;c-0.3-7.2-3.2-13.7-7.8-18.6C62.9,23.8,48.5,22.5,36.6,22.5z" style="fill: rgb(235, 213, 105);"/>
	</g>
<g transform="matrix(4.198465824127197, 0, 0, 4.198465824127197, -5, -4)">
		<path class="st13" d="M27.5,35c-1.1,2.9-1.7,6-1.8,9.3c3.9,0.7,8.4,2,13.5,4.9c9,5,25.6,8.8,39.4,11.3c1.6-2.4,2.8-5.1,3.6-8&#10;&#9;&#9;&#9;c-18-0.5-28.3-7.8-45-14.6C33.6,36.4,30.4,35.5,27.5,35z" style="fill: rgb(235, 213, 105);"/>
	</g>
<g transform="matrix(4.198465824127197, 0, 0, 4.198465824127197, -5, -4)">
		<path d="M 58.8 39.400002 A 4.3 8 0 0 1 54.5 47.400002 A 4.3 8 0 0 1 50.2 39.400002 A 4.3 8 0 0 1 54.5 31.400002 A 4.3 8 0 0 1 58.8 39.400002 Z" transform="matrix(0.3641 -0.9313 0.9313 0.3641 -2.0579 75.8129)" class="st18" style="fill: rgb(207, 186, 92);"/>
	</g>
<g transform="matrix(4.198465824127197, 0, 0, 4.198465824127197, -5, -4)">
		<path class="st13" d="M58.5,66.6c4.1,1.6,8.2,1.1,9-1c0.9-2.2-1.8-5.3-5.9-6.9c-4.1-1.6-8.2-1.1-9,1C51.8,61.9,54.4,65,58.5,66.6z&#10;&#9;&#9;&#9;" style="fill: rgb(235, 213, 105);"/>
	</g>
<g transform="matrix(4.198465824127197, 0, 0, 4.198465824127197, -5, -4)">
		<path class="st13" d="M49.3,62.6c-1.8-1.8-3.4-3.4-5.5-4.9c-2.2-1.5-4.6-3.4-7.1-4.6c-1.8-0.6-4-1.2-5.9-1.5&#10;&#9;&#9;&#9;c-1.5-0.3-2.9-0.3-4.4-0.1c0.9,3.8,2.5,7.4,4.8,10.5c3.3,0.7,6.4,3.1,9.1,5c2.7,1.8,5.4,3.9,8,6.1c2,0.4,4,0.7,6.1,0.7&#10;&#9;&#9;&#9;c3.9,0,7.5-0.8,10.9-2.1c-3.7-0.9-7.3-2.4-10.5-4.6C53,65.6,50.9,64.1,49.3,62.6z" style="fill: rgb(235, 213, 105);"/>
	</g>
<path class="st15" d="M67.2,39.1c0,9.9-8,17.9-17.9,17.9c-9.9,0-17.9-8-17.9-17.9c0-9.9,8-17.9,17.9-17.9&#10;&#9;&#9;C59.1,21.2,67.2,29.2,67.2,39.1z" style="fill: rgb(255, 255, 255); opacity: 0.2;" transform="matrix(4.198465824127197, 0, 0, 4.198465824127197, -5, -4)"/>
<path d="M63.6,21c5.3,4.3,8.7,10.8,8.7,18.1c0,13-10.8,23.6-24.2,23.6c-7.5,0-14.1-3.3-18.6-8.5c3.7,9.9,13.5,17,25,17&#10;&#9;&#9;c14.7,0,26.6-11.6,26.6-25.9C81.1,34.2,73.8,24.6,63.6,21z" transform="matrix(4.198465824127197, 0, 0, 4.198465824127197, -5, -4)" style="opacity: 0.03;"/>
<g transform="matrix(4.198465824127197, 0, 0, 4.198465824127197, -5, -4)">
		<path d="M 237.700003 53.200001 A 14.9 14.9 0 0 1 222.800003 68.1 A 14.9 14.9 0 0 1 207.900003 53.200001 A 14.9 14.9 0 0 1 222.800003 38.300001 A 14.9 14.9 0 0 1 237.700003 53.200001 Z" class="st17" style="fill: rgb(255, 230, 115);"/>
	</g>
<path d="M 232.099997 47.5 A 1.9 1.9 0 0 1 230.199997 49.4 A 1.9 1.9 0 0 1 228.299997 47.5 A 1.9 1.9 0 0 1 230.199997 45.6 A 1.9 1.9 0 0 1 232.099997 47.5 Z" class="st13" style="fill: rgb(235, 213, 105);" transform="matrix(4.198465824127197, 0, 0, 4.198465824127197, -5, -4)"/>
<path d="M 217.500003 45 A 1.2 1.2 0 0 1 216.300003 46.2 A 1.2 1.2 0 0 1 215.100003 45 A 1.2 1.2 0 0 1 216.300003 43.8 A 1.2 1.2 0 0 1 217.500003 45 Z" class="st13" style="fill: rgb(235, 213, 105);" transform="matrix(4.198465824127197, 0, 0, 4.198465824127197, -5, -4)"/>
<path d="M 223.599994 63.200001 A 1.2 1.2 0 0 1 222.399994 64.400001 A 1.2 1.2 0 0 1 221.199994 63.200001 A 1.2 1.2 0 0 1 222.399994 62.000001 A 1.2 1.2 0 0 1 223.599994 63.200001 Z" class="st18" style="fill: rgb(207, 186, 92);" transform="matrix(4.198465824127197, 0, 0, 4.198465824127197, -5, -4)"/>
<path d="M 217.500003 60.900002 A 1.2 1.2 0 0 1 216.300003 62.100002 A 1.2 1.2 0 0 1 215.100003 60.900002 A 1.2 1.2 0 0 1 216.300003 59.700001 A 1.2 1.2 0 0 1 217.500003 60.900002 Z" class="st13" style="fill: rgb(235, 213, 105);" transform="matrix(4.198465824127197, 0, 0, 4.198465824127197, -5, -4)"/>
<path d="M 222.399997 55.400002 A 1.2 1.2 0 0 1 221.199997 56.600002 A 1.2 1.2 0 0 1 219.999997 55.400002 A 1.2 1.2 0 0 1 221.199997 54.200001 A 1.2 1.2 0 0 1 222.399997 55.400002 Z" class="st13" style="fill: rgb(235, 213, 105);" transform="matrix(4.198465824127197, 0, 0, 4.198465824127197, -5, -4)"/>
<path d="M 226.599994 42 A 1.2 1.2 0 0 1 225.399994 43.2 A 1.2 1.2 0 0 1 224.199994 42 A 1.2 1.2 0 0 1 225.399994 40.8 A 1.2 1.2 0 0 1 226.599994 42 Z" class="st18" style="fill: rgb(207, 186, 92);" transform="matrix(4.198465824127197, 0, 0, 4.198465824127197, -5, -4)"/>
<path d="M 229.399997 53.099998 A 1.2 1.2 0 0 1 228.199997 54.299999 A 1.2 1.2 0 0 1 226.999997 53.099998 A 1.2 1.2 0 0 1 228.199997 51.899998 A 1.2 1.2 0 0 1 229.399997 53.099998 Z" class="st18" style="fill: rgb(207, 186, 92);" transform="matrix(4.198465824127197, 0, 0, 4.198465824127197, -5, -4)"/>
<path d="M 225.299994 50.799999 A 1.4 1.4 0 0 1 223.899994 52.199999 A 1.4 1.4 0 0 1 222.499994 50.799999 A 1.4 1.4 0 0 1 223.899994 49.399999 A 1.4 1.4 0 0 1 225.299994 50.799999 Z" class="st13" style="fill: rgb(235, 213, 105);" transform="matrix(4.198465824127197, 0, 0, 4.198465824127197, -5, -4)"/>
<path d="M 232.9 57.299999 A 1.4 1.4 0 0 1 231.5 58.699999 A 1.4 1.4 0 0 1 230.1 57.299999 A 1.4 1.4 0 0 1 231.5 55.899999 A 1.4 1.4 0 0 1 232.9 57.299999 Z" class="st13" style="fill: rgb(235, 213, 105);" transform="matrix(4.198465824127197, 0, 0, 4.198465824127197, -5, -4)"/>
<path d="M 214.300006 53.099998 A 1.2 1.2 0 0 1 213.100006 54.299999 A 1.2 1.2 0 0 1 211.900006 53.099998 A 1.2 1.2 0 0 1 213.100006 51.899998 A 1.2 1.2 0 0 1 214.300006 53.099998 Z" class="st18" style="fill: rgb(207, 186, 92);" transform="matrix(4.198465824127197, 0, 0, 4.198465824127197, -5, -4)"/>
<path d="M 217.000006 53.5 A 1.9 1.9 0 0 1 215.100006 55.4 A 1.9 1.9 0 0 1 213.200006 53.5 A 1.9 1.9 0 0 1 215.100006 51.6 A 1.9 1.9 0 0 1 217.000006 53.5 Z" class="st18" style="fill: rgb(207, 186, 92);" transform="matrix(4.198465824127197, 0, 0, 4.198465824127197, -5, -4)"/>
<path d="M 225.699994 47.5 A 3.3 3.3 0 0 1 222.399994 50.8 A 3.3 3.3 0 0 1 219.099994 47.5 A 3.3 3.3 0 0 1 222.399994 44.2 A 3.3 3.3 0 0 1 225.699994 47.5 Z" class="st13" style="fill: rgb(235, 213, 105);" transform="matrix(4.198465824127197, 0, 0, 4.198465824127197, -5, -4)"/>
<path d="M 231.499997 59.200001 A 3.3 3.3 0 0 1 228.199997 62.500001 A 3.3 3.3 0 0 1 224.899997 59.200001 A 3.3 3.3 0 0 1 228.199997 55.900001 A 3.3 3.3 0 0 1 231.499997 59.200001 Z" class="st13" style="fill: rgb(235, 213, 105);" transform="matrix(4.198465824127197, 0, 0, 4.198465824127197, -5, -4)"/>
<path d="M 229.600003 50.099998 A 9.3 9.3 0 0 1 220.300003 59.399999 A 9.3 9.3 0 0 1 211.000003 50.099998 A 9.3 9.3 0 0 1 220.300003 40.799998 A 9.3 9.3 0 0 1 229.600003 50.099998 Z" class="st15" style="fill: rgb(255, 255, 255); opacity: 0.2;" transform="matrix(4.198465824127197, 0, 0, 4.198465824127197, -5, -4)"/>
<path d="M227.8,40.8c2.8,2.2,4.5,5.6,4.5,9.4c0,6.8-5.6,12.2-12.6,12.2c-3.9,0-7.3-1.7-9.6-4.4c1.9,5.2,7,8.8,13,8.8&#10;&#9;&#9;c7.6,0,13.8-6,13.8-13.4C236.9,47.6,233.1,42.7,227.8,40.8z" transform="matrix(4.198465824127197, 0, 0, 4.198465824127197, -5, -4)" style="opacity: 0.03;"/>
<g transform="matrix(4.198465824127197, 0, 0, 4.198465824127197, -5, -4)">
		<path d="M 101.500004 91.800003 A 16.700001 16.799999 0 0 1 84.800003 108.600002 A 16.700001 16.799999 0 0 1 68.100002 91.800003 A 16.700001 16.799999 0 0 1 84.800003 75.000004 A 16.700001 16.799999 0 0 1 101.500004 91.800003 Z" class="st10" style="fill: rgb(250, 139, 79);"/>
	</g>
<path d="M 95.2 85.400002 A 2.2 2.2 0 0 1 93 87.600002 A 2.2 2.2 0 0 1 90.8 85.400002 A 2.2 2.2 0 0 1 93 83.200001 A 2.2 2.2 0 0 1 95.2 85.400002 Z" class="st11" style="fill: rgb(227, 126, 72);" transform="matrix(4.198465824127197, 0, 0, 4.198465824127197, -5, -4)"/>
<path d="M 78.700001 82.599998 A 1.3 1.3 0 0 1 77.400002 83.899998 A 1.3 1.3 0 0 1 76.100002 82.599998 A 1.3 1.3 0 0 1 77.400002 81.299999 A 1.3 1.3 0 0 1 78.700001 82.599998 Z" class="st11" style="fill: rgb(227, 126, 72);" transform="matrix(4.198465824127197, 0, 0, 4.198465824127197, -5, -4)"/>
<path d="M 85.600003 103.099998 A 1.3 1.3 0 0 1 84.300003 104.399998 A 1.3 1.3 0 0 1 83.000003 103.099998 A 1.3 1.3 0 0 1 84.300003 101.799999 A 1.3 1.3 0 0 1 85.600003 103.099998 Z" class="st11" style="fill: rgb(227, 126, 72);" transform="matrix(4.198465824127197, 0, 0, 4.198465824127197, -5, -4)"/>
<path d="M 78.700001 100.400002 A 1.3 1.3 0 0 1 77.400002 101.700001 A 1.3 1.3 0 0 1 76.100002 100.400002 A 1.3 1.3 0 0 1 77.400002 99.100002 A 1.3 1.3 0 0 1 78.700001 100.400002 Z" class="st11" style="fill: rgb(227, 126, 72);" transform="matrix(4.198465824127197, 0, 0, 4.198465824127197, -5, -4)"/>
<path d="M 84.3 94.300003 A 1.3 1.3 0 0 1 83 95.600003 A 1.3 1.3 0 0 1 81.7 94.300003 A 1.3 1.3 0 0 1 83 93.000003 A 1.3 1.3 0 0 1 84.3 94.300003 Z" class="st11" style="fill: rgb(227, 126, 72);" transform="matrix(4.198465824127197, 0, 0, 4.198465824127197, -5, -4)"/>
<path d="M 88.899998 79.300003 A 1.3 1.3 0 0 1 87.599998 80.600003 A 1.3 1.3 0 0 1 86.299999 79.300003 A 1.3 1.3 0 0 1 87.599998 78.000003 A 1.3 1.3 0 0 1 88.899998 79.300003 Z" class="st11" style="fill: rgb(227, 126, 72);" transform="matrix(4.198465824127197, 0, 0, 4.198465824127197, -5, -4)"/>
<path d="M 92.100003 91.599998 A 1.3 1.3 0 0 1 90.800003 92.899998 A 1.3 1.3 0 0 1 89.500003 91.599998 A 1.3 1.3 0 0 1 90.800003 90.299999 A 1.3 1.3 0 0 1 92.100003 91.599998 Z" class="st11" style="fill: rgb(227, 126, 72);" transform="matrix(4.198465824127197, 0, 0, 4.198465824127197, -5, -4)"/>
<path d="M 87.6 89.099998 A 1.6 1.6 0 0 1 86 90.699998 A 1.6 1.6 0 0 1 84.4 89.099998 A 1.6 1.6 0 0 1 86 87.499998 A 1.6 1.6 0 0 1 87.6 89.099998 Z" class="st11" style="fill: rgb(227, 126, 72);" transform="matrix(4.198465824127197, 0, 0, 4.198465824127197, -5, -4)"/>
<path d="M 96.199998 96.300003 A 1.6 1.6 0 0 1 94.599998 97.900003 A 1.6 1.6 0 0 1 92.999998 96.300003 A 1.6 1.6 0 0 1 94.599998 94.700003 A 1.6 1.6 0 0 1 96.199998 96.300003 Z" class="st11" style="fill: rgb(227, 126, 72);" transform="matrix(4.198465824127197, 0, 0, 4.198465824127197, -5, -4)"/>
<path d="M 75.200001 91.599998 A 1.3 1.3 0 0 1 73.900002 92.899998 A 1.3 1.3 0 0 1 72.600002 91.599998 A 1.3 1.3 0 0 1 73.900002 90.299999 A 1.3 1.3 0 0 1 75.200001 91.599998 Z" class="st11" style="fill: rgb(227, 126, 72);" transform="matrix(4.198465824127197, 0, 0, 4.198465824127197, -5, -4)"/>
<path d="M 78.299999 92.199997 A 2.2 2.2 0 0 1 76.099998 94.399997 A 2.2 2.2 0 0 1 73.899998 92.199997 A 2.2 2.2 0 0 1 76.099998 89.999997 A 2.2 2.2 0 0 1 78.299999 92.199997 Z" class="st11" style="fill: rgb(227, 126, 72);" transform="matrix(4.198465824127197, 0, 0, 4.198465824127197, -5, -4)"/>
<path d="M 88.000003 85.400002 A 3.7 3.7 0 0 1 84.300003 89.100002 A 3.7 3.7 0 0 1 80.600003 85.400002 A 3.7 3.7 0 0 1 84.300003 81.700001 A 3.7 3.7 0 0 1 88.000003 85.400002 Z" class="st11" style="fill: rgb(227, 126, 72);" transform="matrix(4.198465824127197, 0, 0, 4.198465824127197, -5, -4)"/>
<path d="M 94.500003 98.5 A 3.7 3.7 0 0 1 90.800003 102.2 A 3.7 3.7 0 0 1 87.100003 98.5 A 3.7 3.7 0 0 1 90.800003 94.8 A 3.7 3.7 0 0 1 94.500003 98.5 Z" class="st11" style="fill: rgb(227, 126, 72);" transform="matrix(4.198465824127197, 0, 0, 4.198465824127197, -5, -4)"/>
<path d="M 92.200002 89.300003 A 9.3 9.3 0 0 1 82.900002 98.600003 A 9.3 9.3 0 0 1 73.600001 89.300003 A 9.3 9.3 0 0 1 82.900002 80.000003 A 9.3 9.3 0 0 1 92.200002 89.300003 Z" class="st15" style="fill: rgb(255, 255, 255); opacity: 0.2;" transform="matrix(4.198465824127197, 0, 0, 4.198465824127197, -5, -4)"/>
<path d="M90.3,79.9c2.8,2.2,4.5,5.6,4.5,9.4c0,6.8-5.6,12.2-12.6,12.2c-3.9,0-7.3-1.7-9.6-4.4c1.9,5.2,7,8.8,13,8.8&#10;&#9;&#9;c7.6,0,13.8-6,13.8-13.4C99.4,86.7,95.6,81.8,90.3,79.9z" transform="matrix(4.198465824127197, 0, 0, 4.198465824127197, -5, -4)" style="opacity: 0.08;"/>
<path d="M 278.100006 170.699997 H 289.900006 V 174.899997 H 278.100006 V 170.699997 Z" transform="matrix(4.098122596740723, 0.9127465486526488, -0.9127465486526488, 4.098122596740723, 181.27374267578125, -245.8387603759765)" class="st17" style="fill: rgb(255, 230, 115);"/>
<path class="st21" d="M280.3,146.5c0,0-12.6,3-16.1,20.3c0,0,6.2-3.7,13.2-2.1" style="fill: rgb(245, 160, 0);" transform="matrix(4.198465824127197, 0, 0, 4.198465824127197, -5, -4)"/>
<path class="st21" d="M297.6,150.4c0,0,10,8.1,5.9,25.2c0,0-4.1-6-11-7.5" style="fill: rgb(245, 160, 0);" transform="matrix(4.198465824127197, 0, 0, 4.198465824127197, -5, -4)"/>
<path class="st3" d="M296.9,113.8c0,0-14.1,7-18.2,25.4c-4.1,18.4-3.7,31.3-3.7,31.3l8.8,2l8.8,2c0,0,5.8-11.5,9.9-29.9&#10;&#9;&#9;C306.6,126.1,296.9,113.8,296.9,113.8z" style="fill: rgb(250, 116, 52);" transform="matrix(4.198465824127197, 0, 0, 4.198465824127197, -5, -4)"/>
<path class="st17" d="M303.1,129.5l-9.2-2.1l-9.2-2.1c-2.4,3.6-4.7,8.2-5.9,13.9c-1.1,4.9-1.9,9.4-2.4,13.4l11.4,2.5l11.4,2.5&#10;&#9;&#9;c1.2-3.8,2.4-8.2,3.5-13.1C303.8,138.9,303.7,133.8,303.1,129.5z" style="fill: rgb(255, 230, 115);" transform="matrix(4.198465824127197, 0, 0, 4.198465824127197, -5, -4)"/>
<path class="st21" d="M302.2,125.3l-7.5-1.7l-7.5-1.7c-2.1,2.4-4.1,5.5-5.8,9.2l11.1,2.5l11.1,2.5&#10;&#9;&#9;C303.6,132.1,303,128.4,302.2,125.3z" style="fill: rgb(245, 160, 0);" transform="matrix(4.198465824127197, 0, 0, 4.198465824127197, -5, -4)"/>
<path class="st22" d="M301.2,149.8c0.1-0.5,0.3-1.1,0.4-1.6c0,0,0-0.1,0-0.1c0.1-0.5,0.3-1.1,0.4-1.6c0,0,0-0.1,0-0.1&#10;&#9;&#9;c0.1-0.6,0.3-1.2,0.4-1.8c0.1-0.7,0.3-1.3,0.4-1.9c0-0.2,0.1-0.4,0.1-0.6c0.1-0.5,0.1-0.9,0.2-1.4c0-0.2,0-0.4,0.1-0.6&#10;&#9;&#9;c0-0.5,0.1-0.9,0.1-1.3c0-0.2,0-0.3,0-0.5c0-0.6,0.1-1.1,0.1-1.7c0,0,0,0,0-0.1c0-0.1,0-0.2,0-0.4l0,0c0,0,0-0.1,0-0.1&#10;&#9;&#9;c0-0.5,0-0.9,0-1.3c0-0.1,0-0.1,0-0.2c0-0.5,0-1-0.1-1.5c0-0.1,0-0.2,0-0.3c0-0.5-0.1-0.9-0.1-1.4c0-0.1,0-0.2,0-0.3&#10;&#9;&#9;c-1.2-10.7-6.4-17.2-6.4-17.2s0,0-0.1,0l-2.2,9.8l-0.8,3.8l-1.4,6.3l-4.8,21.5l-3.8,17.4l8.8,2&#10;&#9;&#9;C292.6,174.5,297.3,165.2,301.2,149.8C301.2,149.9,301.2,149.9,301.2,149.8z" style="fill: rgb(29, 29, 27); opacity: 0.1;" transform="matrix(4.198465824127197, 0, 0, 4.198465824127197, -5, -4)"/>
<g transform="matrix(4.198465824127197, 0, 0, 4.198465824127197, -5, -4)">
		<g>
			<path class="st8" d="M296.5,145.3c-0.8,3.5-4.3,5.8-7.8,5c-3.5-0.8-5.7-4.3-5-7.8c0.8-3.5,4.3-5.8,7.8-5&#10;&#9;&#9;&#9;&#9;C295,138.3,297.3,141.8,296.5,145.3z" style="fill: rgb(154, 84, 72);"/>
		</g>
	</g><g transform="matrix(4.198465824127197, 0, 0, 4.198465824127197, -5, -4)">
			<path class="st8" d="M295.3,144.4c-0.7,3.1-3.7,5.1-6.8,4.4c-3.1-0.7-5-3.7-4.4-6.8c0.7-3.1,3.7-5.1,6.8-4.4&#10;&#9;&#9;&#9;&#9;C294,138.2,296,141.3,295.3,144.4z" style="fill: rgb(154, 84, 72);"/>
		</g><g transform="matrix(4.198465824127197, 0, 0, 4.198465824127197, -5, -4)">
			<path class="st8" d="M288.6,150.8c-3.7-0.8-6.1-4.6-5.3-8.3c0.8-3.8,4.6-6.2,8.3-5.3l0,0c3.7,0.8,6.1,4.6,5.3,8.3&#10;&#9;&#9;&#9;&#9;C296.1,149.2,292.4,151.6,288.6,150.8L288.6,150.8z M291.4,138c-3.3-0.7-6.5,1.4-7.3,4.7c-0.7,3.3,1.4,6.6,4.6,7.3l0,0&#10;&#9;&#9;&#9;&#9;c3.3,0.7,6.5-1.4,7.3-4.7C296.8,141.9,294.7,138.7,291.4,138z" style="fill: rgb(154, 84, 72);"/>
		</g><g transform="matrix(4.198465824127197, 0, 0, 4.198465824127197, -5, -4)">
			
				<path d="M 291.300012 141 A 1.6 1.6 0 0 1 289.700012 142.6 A 1.6 1.6 0 0 1 288.100012 141 A 1.6 1.6 0 0 1 289.700012 139.4 A 1.6 1.6 0 0 1 291.300012 141 Z" transform="matrix(0.9765 0.2157 -0.2157 0.9765 37.2356 -59.1635)" class="st8" style="fill: rgb(154, 84, 72);"/>
		</g><g transform="matrix(4.198465824127197, 0, 0, 4.198465824127197, -5, -4)">
			<path d="M 287.8 141.899994 A 0.8 0.8 0 0 1 287 142.699994 A 0.8 0.8 0 0 1 286.2 141.899994 A 0.8 0.8 0 0 1 287 141.099994 A 0.8 0.8 0 0 1 287.8 141.899994 Z" class="st8" style="fill: rgb(154, 84, 72);"/>
		</g>
<g transform="matrix(4.198465824127197, 0, 0, 4.198465824127197, -5, -4)">
		<path class="st23" d="M279.1,194c0,0,16-15,3.9-17.6C270.9,173.7,279.1,194,279.1,194z" style="fill: rgb(241, 137, 6);"/>
	</g>
<g transform="matrix(4.198465824127197, 0, 0, 4.198465824127197, -5, -4)">
		<path class="st17" d="M280.3,188.5c0,0,10.3-10.5,2.7-12.2C275.4,174.7,280.3,188.5,280.3,188.5z" style="fill: rgb(255, 230, 115);"/>
	</g>
<g transform="matrix(4.198465824127197, 0, 0, 4.198465824127197, -5, -4)">
		<path class="st23" d="M34.4,115.4c0,0-7.3,20.7,4.7,17.4C51.1,129.5,34.4,115.4,34.4,115.4z" style="fill: rgb(241, 137, 6);"/>
	</g>
<g transform="matrix(4.198465824127197, 0, 0, 4.198465824127197, -5, -4)">
		<path class="st17" d="M35.9,120.7c0,0-4.3,14.1,3.3,12C46.7,130.7,35.9,120.7,35.9,120.7z" style="fill: rgb(255, 230, 115);"/>
	</g>
<path class="st24" d="M41.5,166.8c0,0-7.5-4.6-10.7-14.5c-3.2-10-6.2-19.2-6.2-19.2l14.6,10.8" style="fill: rgb(219, 126, 12);" transform="matrix(4.198465824127197, 0, 0, 4.198465824127197, -5, -4)"/>
<path class="st24" d="M57.7,161.5c0,0,3.4-8.1,0.2-18.1c-3.2-10-6.2-19.2-6.2-19.2l-5.5,17.3" style="fill: rgb(219, 126, 12);" transform="matrix(4.198465824127197, 0, 0, 4.198465824127197, -5, -4)"/>
<path class="st24" d="M37.6,137.1c-0.4-1.1,0-2.2,0.8-2.5l2.8-0.9c0.8-0.3,1.8,0.4,2.1,1.6l0,0c0.4,1.1,0,2.3-0.8,2.5l-2.8,0.9&#10;&#9;&#9;C38.9,138.9,37.9,138.2,37.6,137.1L37.6,137.1z" style="fill: rgb(219, 126, 12);" transform="matrix(4.198465824127197, 0, 0, 4.198465824127197, -5, -4)"/>
<path class="st17" d="M60.3,197.1c0,0,10.6-10.4,7-21.3c-3.5-10.9-23-40.9-23-40.9l-3.8,1.3l-3.9,1.2c0,0,1.9,35.7,5.5,46.6&#10;&#9;&#9;C45.6,194.9,60.3,197.1,60.3,197.1z" style="fill: rgb(255, 230, 115);" transform="matrix(4.198465824127197, 0, 0, 4.198465824127197, -5, -4)"/>
<g transform="matrix(4.198465824127197, 0, 0, 4.198465824127197, -5, -4)">
		<path class="st8" d="M46.9,173.8c-0.9-2.9,0.6-6,3.5-6.9c2.9-0.9,6,0.6,6.9,3.5c0.9,2.9-0.6,6-3.5,6.9&#10;&#9;&#9;&#9;C51,178.2,47.9,176.7,46.9,173.8z" style="fill: rgb(154, 84, 72);"/>
	</g>
<g transform="matrix(4.198465824127197, 0, 0, 4.198465824127197, -5, -4)">
		<path class="st8" d="M48.2,173.9c-0.8-2.5,0.5-5.2,3.1-6.1c2.5-0.8,5.2,0.6,6.1,3.1c0.8,2.5-0.5,5.2-3.1,6.1&#10;&#9;&#9;&#9;C51.7,177.8,49,176.4,48.2,173.9z" style="fill: rgb(154, 84, 72);"/>
	</g>
<g transform="matrix(4.198465824127197, 0, 0, 4.198465824127197, -5, -4)">
		<path class="st8" d="M50.3,166.3c3.2-1,6.6,0.7,7.6,3.9c1,3.2-0.7,6.6-3.9,7.6c-3.2,1-6.6-0.7-7.6-3.9&#10;&#9;&#9;&#9;C45.4,170.8,47.1,167.3,50.3,166.3L50.3,166.3z M53.7,176.8c2.6-0.8,4-3.6,3.1-6.2c-0.8-2.6-3.6-4-6.2-3.2l-0.2-0.5l0.2,0.5&#10;&#9;&#9;&#9;c-2.6,0.8-4,3.6-3.1,6.2C48.3,176.2,51.1,177.6,53.7,176.8z" style="fill: rgb(154, 84, 72);"/>
	</g>
<g transform="matrix(4.198465824127197, 0, 0, 4.198465824127197, -5, -4)">
		<path class="st24" d="M60.3,197.1c0,0,7.2-7,7.7-15.6c-3.8-1.7-8.4-2-12.9-0.5c-4.5,1.5-8.1,4.5-10.2,8&#10;&#9;&#9;&#9;C50.3,195.6,60.3,197.1,60.3,197.1z" style="fill: rgb(219, 126, 12);"/>
	</g>
<path class="st3" d="M42.9,153.4c-0.5-1.6,0.4-3.3,1.9-3.8l0,0c1.6-0.5,3.3,0.4,3.8,1.9l2.5,7.8c0.5,1.6-0.4,3.3-1.9,3.8l0,0&#10;&#9;&#9;c-1.6,0.5-3.3-0.4-3.8-1.9L42.9,153.4z" style="fill: rgb(250, 116, 52);" transform="matrix(4.198465824127197, 0, 0, 4.198465824127197, -5, -4)"/>
<path class="st8" d="M46.5,160.7c-0.3-0.9,0.2-2,1.1-2.3c0.9-0.3,2,0.2,2.3,1.1c0.3,0.9-0.2,2-1.2,2.3&#10;&#9;&#9;C47.9,162.1,46.8,161.6,46.5,160.7z" style="fill: rgb(154, 84, 72);" transform="matrix(4.198465824127197, 0, 0, 4.198465824127197, -5, -4)"/>
<path class="st8" d="M45.7,154.5c-0.1-0.4,0.1-0.8,0.5-0.9c0.4-0.1,0.8,0.1,0.9,0.5c0.1,0.4-0.1,0.8-0.5,0.9&#10;&#9;&#9;C46.2,155.1,45.8,154.9,45.7,154.5z" style="fill: rgb(154, 84, 72);" transform="matrix(4.198465824127197, 0, 0, 4.198465824127197, -5, -4)"/>
<path class="st8" d="M44.9,152.2c-0.1-0.4,0.1-0.8,0.5-0.9c0.4-0.1,0.8,0.1,0.9,0.5c0.1,0.4-0.1,0.8-0.5,0.9&#10;&#9;&#9;C45.5,152.8,45,152.6,44.9,152.2z" style="fill: rgb(154, 84, 72);" transform="matrix(4.198465824127197, 0, 0, 4.198465824127197, -5, -4)"/>
<path d="M 44.099998 156.100006 H 50.099998 V 157.500006 H 44.099998 V 156.100006 Z" transform="matrix(-3.9931612014770503, 1.296486258506775, -1.296486258506775, -3.9931612014770503, 584.5557250976561, 1219.0894775390623)" class="st8" style="fill: rgb(154, 84, 72);"/>
<path class="st22" d="M57.8,143.5c-3.2-10-6.2-19.2-6.2-19.2L46.9,139c-1.6-2.5-2.6-4.1-2.6-4.1l-1,0.3c-0.4-1.1-1.3-1.8-2.1-1.6&#10;&#9;&#9;l-0.5,0.1l0.6,2l0.6,2l3.6,11.6l2.7,8.8l1,3.2l0.4,1.4l1,3.2l0.2,0.5l0.2,0.6l0.2,0.6l2.7,8.8l0.1,0.4l0,0.1l0.2,0.5l1,3.2l5,16.1&#10;&#9;&#9;c0,0,0.1,0,0.1,0s10.6-10.4,7-21.3c-1.3-4-4.8-10.7-8.7-17.5C59.3,155,59.8,149.6,57.8,143.5z" style="fill: rgb(29, 29, 27); opacity: 0.1;" transform="matrix(4.198465824127197, 0, 0, 4.198465824127197, -5, -4)"/>
<path d="M 111.3 134.800003 A 14.3 14.3 0 0 1 97 149.100003 A 14.3 14.3 0 0 1 82.7 134.800003 A 14.3 14.3 0 0 1 97 120.500003 A 14.3 14.3 0 0 1 111.3 134.800003 Z" class="st5" style="fill: rgb(248, 233, 211);" transform="matrix(4.198465824127197, 0, 0, 4.198465824127197, -5, -4)"/>
<path d="M 253.199997 130.199997 A 19 19 0 0 1 234.199997 149.199997 A 19 19 0 0 1 215.199997 130.199997 A 19 19 0 0 1 234.199997 111.199997 A 19 19 0 0 1 253.199997 130.199997 Z" class="st5" style="fill: rgb(248, 233, 211);" transform="matrix(4.198465824127197, 0, 0, 4.198465824127197, -5, -4)"/>
<path d="M 142.900006 134.800003 A 14.3 14.3 0 0 1 128.600006 149.100003 A 14.3 14.3 0 0 1 114.300006 134.800003 A 14.3 14.3 0 0 1 128.600006 120.500003 A 14.3 14.3 0 0 1 142.900006 134.800003 Z" class="st5" style="fill: rgb(248, 233, 211);" transform="matrix(4.198465824127197, 0, 0, 4.198465824127197, -5, -4)"/>
<path d="M 203.600003 125 A 14.3 14.3 0 0 1 189.300003 139.3 A 14.3 14.3 0 0 1 175.000003 125 A 14.3 14.3 0 0 1 189.300003 110.7 A 14.3 14.3 0 0 1 203.600003 125 Z" class="st5" style="fill: rgb(248, 233, 211);" transform="matrix(4.198465824127197, 0, 0, 4.198465824127197, -5, -4)"/>
<path d="M 159.899997 125.599998 A 12.2 12.2 0 0 1 147.699997 137.799998 A 12.2 12.2 0 0 1 135.499997 125.599998 A 12.2 12.2 0 0 1 147.699997 113.399999 A 12.2 12.2 0 0 1 159.899997 125.599998 Z" class="st5" style="fill: rgb(248, 233, 211);" transform="matrix(4.198465824127197, 0, 0, 4.198465824127197, -5, -4)"/>
<path d="M 221.300006 129.100006 A 12.2 12.2 0 0 1 209.100006 141.300006 A 12.2 12.2 0 0 1 196.900006 129.100006 A 12.2 12.2 0 0 1 209.100006 116.900006 A 12.2 12.2 0 0 1 221.300006 129.100006 Z" class="st5" style="fill: rgb(248, 233, 211);" transform="matrix(4.198465824127197, 0, 0, 4.198465824127197, -5, -4)"/>
<path d="M 124.199999 125.199997 A 11.6 11.6 0 0 1 112.599998 136.799997 A 11.6 11.6 0 0 1 100.999998 125.199997 A 11.6 11.6 0 0 1 112.599998 113.599997 A 11.6 11.6 0 0 1 124.199999 125.199997 Z" class="st5" style="fill: rgb(248, 233, 211);" transform="matrix(4.198465824127197, 0, 0, 4.198465824127197, -5, -4)"/>
<path d="M 177.499994 130.800003 A 11.6 11.6 0 0 1 165.899994 142.400003 A 11.6 11.6 0 0 1 154.299994 130.800003 A 11.6 11.6 0 0 1 165.899994 119.200003 A 11.6 11.6 0 0 1 177.499994 130.800003 Z" class="st5" style="fill: rgb(248, 233, 211);" transform="matrix(4.198465824127197, 0, 0, 4.198465824127197, -5, -4)"/>
<path d="M 97 149.199997 L 235.899994 149.199997 L 234.199997 127.900002 L 107.099998 127.900002" class="st5" style="fill: rgb(248, 233, 211);" transform="matrix(4.198465824127197, 0, 0, 4.198465824127197, -5, -4)"/>
<path d="M 197.800003 93.900002 H 206.900003 V 123.900002 H 197.800003 V 93.900002 Z" class="st5" style="fill: rgb(248, 233, 211);" transform="matrix(4.198465824127197, 0, 0, 4.198465824127197, -5, -4)"/>
<path d="M 129.600006 93.900002 H 138.700006 V 123.900002 H 129.600006 V 93.900002 Z" class="st5" style="fill: rgb(248, 233, 211);" transform="matrix(4.198465824127197, 0, 0, 4.198465824127197, -5, -4)"/>
<path d="M 163.800003 106.400002 H 172.900003 V 136.400002 H 163.800003 V 106.400002 Z" class="st5" style="fill: rgb(248, 233, 211);" transform="matrix(4.198465824127197, 0, 0, 4.198465824127197, -5, -4)"/>
<path d="M 166.899994 50.5 H 169.799994 V 112.400002 H 166.899994 V 50.5 Z" class="st9" style="fill: rgb(248, 122, 50);" transform="matrix(4.198465824127197, 0, 0, 4.198465824127197, -5, -4)"/>
<path d="M 203.599994 157.100006 A 5.2 5.2 0 0 1 198.399994 162.300006 A 5.2 5.2 0 0 1 193.199994 157.100006 A 5.2 5.2 0 0 1 198.399994 151.900006 A 5.2 5.2 0 0 1 203.599994 157.100006 Z" class="st3" style="fill: rgb(250, 116, 52);" transform="matrix(4.198465824127197, 0, 0, 4.198465824127197, -5, -4)"/>
<path d="M 150.900003 181.600006 A 9.1 9.1 0 0 1 141.800003 190.700006 A 9.1 9.1 0 0 1 132.700003 181.600006 A 9.1 9.1 0 0 1 141.800003 172.500006 A 9.1 9.1 0 0 1 150.900003 181.600006 Z" class="st3" style="fill: rgb(250, 116, 52);" transform="matrix(4.198465824127197, 0, 0, 4.198465824127197, -5, -4)"/>
<path d="M 166.900003 157.100006 A 6.1 6.1 0 0 1 160.800003 163.200006 A 6.1 6.1 0 0 1 154.700003 157.100006 A 6.1 6.1 0 0 1 160.800003 151.000006 A 6.1 6.1 0 0 1 166.900003 157.100006 Z" class="st4" style="fill: rgb(252, 171, 15);" transform="matrix(4.198465824127197, 0, 0, 4.198465824127197, -5, -4)"/>
<path d="M 191.400003 181.600006 A 6.1 6.1 0 0 1 185.300003 187.700006 A 6.1 6.1 0 0 1 179.200003 181.600006 A 6.1 6.1 0 0 1 185.300003 175.500006 A 6.1 6.1 0 0 1 191.400003 181.600006 Z" class="st4" style="fill: rgb(252, 171, 15);" transform="matrix(4.198465824127197, 0, 0, 4.198465824127197, -5, -4)"/>
<path d="M 127.099997 158.5 A 8.4 8.4 0 0 1 118.699997 166.9 A 8.4 8.4 0 0 1 110.299997 158.5 A 8.4 8.4 0 0 1 118.699997 150.1 A 8.4 8.4 0 0 1 127.099997 158.5 Z" class="st4" style="fill: rgb(252, 171, 15);" transform="matrix(4.198465824127197, 0, 0, 4.198465824127197, -5, -4)"/>
<path d="M 188.400003 181.600006 A 3.1 3.1 0 0 1 185.300003 184.700006 A 3.1 3.1 0 0 1 182.200003 181.600006 A 3.1 3.1 0 0 1 185.300003 178.500006 A 3.1 3.1 0 0 1 188.400003 181.600006 Z" class="st3" style="fill: rgb(250, 116, 52);" transform="matrix(4.198465824127197, 0, 0, 4.198465824127197, -5, -4)"/>
<path d="M 163.900003 157.100006 A 3.1 3.1 0 0 1 160.800003 160.200006 A 3.1 3.1 0 0 1 157.700003 157.100006 A 3.1 3.1 0 0 1 160.800003 154.000006 A 3.1 3.1 0 0 1 163.900003 157.100006 Z" class="st3" style="fill: rgb(250, 116, 52);" transform="matrix(4.198465824127197, 0, 0, 4.198465824127197, -5, -4)"/>
<path d="M 122.899997 158.5 A 4.2 4.2 0 0 1 118.699997 162.7 A 4.2 4.2 0 0 1 114.499997 158.5 A 4.2 4.2 0 0 1 118.699997 154.3 A 4.2 4.2 0 0 1 122.899997 158.5 Z" class="st3" style="fill: rgb(250, 116, 52);" transform="matrix(4.198465824127197, 0, 0, 4.198465824127197, -5, -4)"/>
<g transform="matrix(4.198465824127197, 0, 0, 4.198465824127197, -5, -4)">
		<path class="st15" d="M314.5,45.9c-0.2,0-0.3-0.1-0.4-0.2l-1.1-1.7c-0.1-0.2-0.1-0.5,0.2-0.7c0.2-0.1,0.5-0.1,0.7,0.2l1.1,1.7&#10;&#9;&#9;&#9;c0.1,0.2,0.1,0.5-0.2,0.7C314.7,45.9,314.6,45.9,314.5,45.9z" style="fill: rgb(255, 255, 255);"/>
	</g><path class="st15" d="M311.1,40.5c-0.2,0-0.3-0.1-0.4-0.2l-2.3-3.7c-0.1-0.2-0.1-0.5,0.2-0.7c0.2-0.1,0.5-0.1,0.7,0.2l2.3,3.7&#10;&#9;&#9;&#9;c0.1,0.2,0.1,0.5-0.2,0.7C311.3,40.5,311.2,40.5,311.1,40.5z M306.6,33.2c-0.2,0-0.3-0.1-0.4-0.2l-2.3-3.7&#10;&#9;&#9;&#9;c-0.1-0.2-0.1-0.5,0.2-0.7c0.2-0.1,0.5-0.1,0.7,0.2l2.3,3.7c0.1,0.2,0.1,0.5-0.2,0.7C306.8,33.1,306.7,33.2,306.6,33.2z M302,25.8&#10;&#9;&#9;&#9;c-0.2,0-0.3-0.1-0.4-0.2l-2.3-3.7c-0.1-0.2-0.1-0.5,0.2-0.7c0.2-0.1,0.5-0.1,0.7,0.2l2.3,3.7c0.1,0.2,0.1,0.5-0.2,0.7&#10;&#9;&#9;&#9;C302.2,25.8,302.1,25.8,302,25.8z" style="fill: rgb(255, 255, 255);" transform="matrix(4.198465824127197, 0, 0, 4.198465824127197, -5, -4)"/><path class="st15" d="M297.5,18.5c-0.2,0-0.3-0.1-0.4-0.2l-0.9-1.4l-1.7,0.1c-0.3,0-0.5-0.2-0.5-0.5c0-0.3,0.2-0.5,0.5-0.5&#10;&#9;&#9;&#9;l2.3-0.2l1.2,2c0.1,0.2,0.1,0.5-0.2,0.7C297.6,18.5,297.6,18.5,297.5,18.5z" style="fill: rgb(255, 255, 255);" transform="matrix(4.198465824127197, 0, 0, 4.198465824127197, -5, -4)"/><path class="st15" d="M252,19.9c-0.3,0-0.5-0.2-0.5-0.5c0-0.3,0.2-0.5,0.5-0.5l4.2-0.3c0.2,0,0.5,0.2,0.5,0.5&#10;&#9;&#9;&#9;c0,0.3-0.2,0.5-0.5,0.5L252,19.9C252,19.9,252,19.9,252,19.9z M260.5,19.3c-0.3,0-0.5-0.2-0.5-0.5c0-0.3,0.2-0.5,0.5-0.5l4.2-0.3&#10;&#9;&#9;&#9;c0.2,0,0.5,0.2,0.5,0.5c0,0.3-0.2,0.5-0.5,0.5L260.5,19.3C260.5,19.3,260.5,19.3,260.5,19.3z M268.9,18.7c-0.3,0-0.5-0.2-0.5-0.5&#10;&#9;&#9;&#9;c0-0.3,0.2-0.5,0.5-0.5l4.2-0.3c0.2,0,0.5,0.2,0.5,0.5c0,0.3-0.2,0.5-0.5,0.5L268.9,18.7C269,18.7,269,18.7,268.9,18.7z&#10;&#9;&#9;&#9; M277.4,18.1c-0.3,0-0.5-0.2-0.5-0.5c0-0.3,0.2-0.5,0.5-0.5l4.2-0.3c0.2,0,0.5,0.2,0.5,0.5c0,0.3-0.2,0.5-0.5,0.5L277.4,18.1&#10;&#9;&#9;&#9;C277.5,18.1,277.4,18.1,277.4,18.1z M285.9,17.5c-0.3,0-0.5-0.2-0.5-0.5c0-0.3,0.2-0.5,0.5-0.5l4.2-0.3c0.2,0,0.5,0.2,0.5,0.5&#10;&#9;&#9;&#9;c0,0.3-0.2,0.5-0.5,0.5L285.9,17.5C285.9,17.5,285.9,17.5,285.9,17.5z" style="fill: rgb(255, 255, 255);" transform="matrix(4.198465824127197, 0, 0, 4.198465824127197, -5, -4)"/><path class="st15" d="M245.7,20.4c-0.3,0-0.5-0.2-0.5-0.5c0-0.3,0.2-0.5,0.5-0.5l2-0.1c0.2,0,0.5,0.2,0.5,0.5&#10;&#9;&#9;&#9;c0,0.3-0.2,0.5-0.5,0.5L245.7,20.4C245.8,20.4,245.7,20.4,245.7,20.4z" style="fill: rgb(255, 255, 255);" transform="matrix(4.198465824127197, 0, 0, 4.198465824127197, -5, -4)"/>
<g transform="matrix(4.198465824127197, 0, 0, 4.198465824127197, -5, -4)">
		
			<path d="M 301.799994 16.299999 A 5.4 5.4 0 0 1 296.399994 21.699999 A 5.4 5.4 0 0 1 290.999994 16.299999 A 5.4 5.4 0 0 1 296.399994 10.899999 A 5.4 5.4 0 0 1 301.799994 16.299999 Z" transform="matrix(-0.7072 -0.7071 0.7071 -0.7072 494.5053 237.3705)" class="st17" style="fill: rgb(255, 230, 115);"/>
	</g>
<g transform="matrix(4.198465824127197, 0, 0, 4.198465824127197, -5, -4)">
		<path d="M 28.4 95 A 5.4 5.4 0 0 1 23 100.4 A 5.4 5.4 0 0 1 17.6 95 A 5.4 5.4 0 0 1 23 89.6 A 5.4 5.4 0 0 1 28.4 95 Z" transform="matrix(-0.7071 -0.7071 0.7071 -0.7071 -28.0065 178.4599)" class="st17" style="fill: rgb(255, 230, 115);"/>
	</g>
<g transform="matrix(4.198465824127197, 0, 0, 4.198465824127197, -5, -4)">
		
			<path d="M 251.099997 19.9 A 5.4 5.4 0 0 1 245.699997 25.3 A 5.4 5.4 0 0 1 240.299997 19.9 A 5.4 5.4 0 0 1 245.699997 14.5 A 5.4 5.4 0 0 1 251.099997 19.9 Z" transform="matrix(-0.7071 -0.7071 0.7071 -0.7071 405.45 207.6578)" class="st4" style="fill: rgb(252, 171, 15);"/>
	</g>
<g transform="matrix(4.198465824127197, 0, 0, 4.198465824127197, -5, -4)">
		
			<path d="M 319.9 99.800003 A 5.4 5.4 0 0 1 314.5 105.200003 A 5.4 5.4 0 0 1 309.1 99.800003 A 5.4 5.4 0 0 1 314.5 94.400003 A 5.4 5.4 0 0 1 319.9 99.800003 Z" transform="matrix(-0.7071 -0.7071 0.7071 -0.7071 466.2752 392.7115)" class="st4" style="fill: rgb(252, 171, 15);"/>
	</g>
<g transform="matrix(4.198465824127197, 0, 0, 4.198465824127197, -5, -4)">
		<path d="M 317.4 45.400002 A 2.9 2.9 0 0 1 314.5 48.300002 A 2.9 2.9 0 0 1 311.6 45.400002 A 2.9 2.9 0 0 1 314.5 42.500001 A 2.9 2.9 0 0 1 317.4 45.400002 Z" transform="matrix(-0.707 -0.7072 0.7072 -0.707 504.7137 299.86)" class="st3" style="fill: rgb(250, 116, 52);"/>
	</g>
<g transform="matrix(4.198465824127197, 0, 0, 4.198465824127197, -5, -4)">
		<path d="M 284.199988 99 A 2.9 2.9 0 0 1 281.299988 101.9 A 2.9 2.9 0 0 1 278.399988 99 A 2.9 2.9 0 0 1 281.299988 96.1 A 2.9 2.9 0 0 1 284.199988 99 Z" transform="matrix(-0.707 -0.7072 0.7072 -0.707 410.1523 367.961)" class="st3" style="fill: rgb(250, 116, 52);"/>
	</g>
<g transform="matrix(4.198465824127197, 0, 0, 4.198465824127197, -5, -4)">
		<path d="M 52.199999 92.199997 A 2.9 2.9 0 0 1 49.299999 95.099997 A 2.9 2.9 0 0 1 46.399999 92.199997 A 2.9 2.9 0 0 1 49.299999 89.299997 A 2.9 2.9 0 0 1 52.199999 92.199997 Z" transform="matrix(-0.707 -0.7072 0.7072 -0.707 18.9312 192.1759)" class="st3" style="fill: rgb(250, 116, 52);"/>
	</g>
<path class="st15" d="M132.4,25.8c0,0-0.1,0-0.1,0l-3.9-1c-0.3-0.1-0.4-0.3-0.4-0.6c0.1-0.3,0.3-0.4,0.6-0.4l3.9,1&#10;&#9;&#9;c0.3,0.1,0.4,0.3,0.4,0.6C132.8,25.6,132.6,25.8,132.4,25.8z M124.7,23.7c0,0-0.1,0-0.1,0l-3.9-1c-0.3-0.1-0.4-0.3-0.4-0.6&#10;&#9;&#9;c0.1-0.3,0.3-0.4,0.6-0.4l3.9,1c0.3,0.1,0.4,0.3,0.4,0.6C125.1,23.6,124.9,23.7,124.7,23.7z M116.9,21.7c0,0-0.1,0-0.1,0l-3.9-1&#10;&#9;&#9;c-0.3-0.1-0.4-0.3-0.4-0.6c0.1-0.3,0.3-0.4,0.6-0.4l3.9,1c0.3,0.1,0.4,0.3,0.4,0.6C117.4,21.5,117.2,21.7,116.9,21.7z M109.2,19.6&#10;&#9;&#9;c0,0-0.1,0-0.1,0l-3.9-1c-0.3-0.1-0.4-0.3-0.4-0.6c0.1-0.3,0.3-0.4,0.6-0.4l3.9,1c0.3,0.1,0.4,0.3,0.4,0.6&#10;&#9;&#9;C109.6,19.5,109.4,19.6,109.2,19.6z M101.5,17.6c0,0-0.1,0-0.1,0l-0.5-0.1c-0.3-0.1-0.4-0.3-0.4-0.6c0.1-0.3,0.3-0.4,0.6-0.4&#10;&#9;&#9;l0.5,0.1c0.3,0.1,0.4,0.3,0.4,0.6C101.9,17.4,101.7,17.6,101.5,17.6z" style="fill: rgb(255, 255, 255);" transform="matrix(4.198465824127197, 0, 0, 4.198465824127197, -5, -4)"/>
<path class="st15" d="M52.4,216.7l-2.5-1.2c-0.2-0.1-0.4-0.4-0.2-0.7c0.1-0.2,0.4-0.4,0.7-0.2l2.2,1.1l1.1-0.2&#10;&#9;&#9;c0.3-0.1,0.5,0.1,0.6,0.4c0.1,0.3-0.1,0.5-0.4,0.6L52.4,216.7z M57.7,215.5c-0.2,0-0.4-0.2-0.5-0.4c-0.1-0.3,0.1-0.5,0.4-0.6&#10;&#9;&#9;l3.9-0.8c0.3-0.1,0.5,0.1,0.6,0.4c0.1,0.3-0.1,0.5-0.4,0.6l-3.9,0.8C57.7,215.5,57.7,215.5,57.7,215.5z M65.5,213.9&#10;&#9;&#9;c-0.2,0-0.4-0.2-0.5-0.4c-0.1-0.3,0.1-0.5,0.4-0.6l3.9-0.8c0.3-0.1,0.5,0.1,0.6,0.4c0.1,0.3-0.1,0.5-0.4,0.6l-3.9,0.8&#10;&#9;&#9;C65.6,213.9,65.5,213.9,65.5,213.9z M46.5,213.7c-0.1,0-0.1,0-0.2-0.1l-3.6-1.8c-0.2-0.1-0.4-0.4-0.2-0.7c0.1-0.2,0.4-0.4,0.7-0.2&#10;&#9;&#9;l3.6,1.8c0.2,0.1,0.4,0.4,0.2,0.7C46.8,213.6,46.6,213.7,46.5,213.7z M73.3,212.2c-0.2,0-0.4-0.2-0.5-0.4c-0.1-0.3,0.1-0.5,0.4-0.6&#10;&#9;&#9;l3.9-0.8c0.3-0.1,0.5,0.1,0.6,0.4c0.1,0.3-0.1,0.5-0.4,0.6l-3.9,0.8C73.4,212.2,73.4,212.2,73.3,212.2z M81.1,210.5&#10;&#9;&#9;c-0.2,0-0.4-0.2-0.5-0.4c-0.1-0.3,0.1-0.5,0.4-0.6l3.9-0.8c0.3-0.1,0.5,0.1,0.6,0.4c0.1,0.3-0.1,0.5-0.4,0.6l-3.9,0.8&#10;&#9;&#9;C81.2,210.5,81.2,210.5,81.1,210.5z M39.3,210.2c-0.1,0-0.1,0-0.2-0.1l-3.6-1.8c-0.2-0.1-0.4-0.4-0.2-0.7c0.1-0.2,0.4-0.4,0.7-0.2&#10;&#9;&#9;l3.6,1.8c0.2,0.1,0.4,0.4,0.2,0.7C39.6,210.1,39.5,210.2,39.3,210.2z M89,208.9c-0.2,0-0.4-0.2-0.5-0.4c-0.1-0.3,0.1-0.5,0.4-0.6&#10;&#9;&#9;l0.6-0.1c0.3-0.1,0.5,0.1,0.6,0.4c0.1,0.3-0.1,0.5-0.4,0.6l-0.6,0.1C89,208.9,89,208.9,89,208.9z M32.1,206.7c-0.1,0-0.1,0-0.2-0.1&#10;&#9;&#9;l-3.6-1.8c-0.2-0.1-0.4-0.4-0.2-0.7c0.1-0.2,0.4-0.4,0.7-0.2l3.6,1.8c0.2,0.1,0.4,0.4,0.2,0.7C32.4,206.6,32.3,206.7,32.1,206.7z" style="fill: rgb(255, 255, 255);" transform="matrix(4.198465824127197, 0, 0, 4.198465824127197, -5, -4)"/>
<path class="st15" d="M253.2,210.4c-0.3,0-0.5-0.2-0.5-0.5c0-0.3,0.2-0.5,0.5-0.5l4-0.4c0.3,0,0.5,0.2,0.5,0.5&#10;&#9;&#9;c0,0.3-0.2,0.5-0.5,0.5L253.2,210.4C253.2,210.4,253.2,210.4,253.2,210.4z M261.1,209.6c-0.3,0-0.5-0.2-0.5-0.5&#10;&#9;&#9;c0-0.3,0.2-0.5,0.5-0.5l4-0.4c0.3,0,0.5,0.2,0.5,0.5c0,0.3-0.2,0.5-0.5,0.5L261.1,209.6C261.2,209.6,261.1,209.6,261.1,209.6z&#10;&#9;&#9; M269.1,208.9c-0.3,0-0.5-0.2-0.5-0.5c0-0.3,0.2-0.5,0.5-0.5l4-0.4c0.3,0,0.5,0.2,0.5,0.5c0,0.3-0.2,0.5-0.5,0.5L269.1,208.9&#10;&#9;&#9;C269.1,208.9,269.1,208.9,269.1,208.9z M277.1,208.2c-0.3,0-0.5-0.2-0.5-0.5c0-0.3,0.2-0.5,0.5-0.5l4-0.4c0.3,0,0.5,0.2,0.5,0.5&#10;&#9;&#9;c0,0.3-0.2,0.5-0.5,0.5L277.1,208.2C277.1,208.1,277.1,208.2,277.1,208.2z M285,207.4c-0.3,0-0.5-0.2-0.5-0.5&#10;&#9;&#9;c0-0.3,0.2-0.5,0.5-0.5l4-0.4c0.3,0,0.5,0.2,0.5,0.5c0,0.3-0.2,0.5-0.5,0.5L285,207.4C285.1,207.4,285,207.4,285,207.4z M293,206.7&#10;&#9;&#9;c-0.3,0-0.5-0.2-0.5-0.5c0-0.3,0.2-0.5,0.5-0.5l4-0.4c0.3,0,0.5,0.2,0.5,0.5c0,0.3-0.2,0.5-0.5,0.5L293,206.7&#10;&#9;&#9;C293,206.7,293,206.7,293,206.7z M301,205.9c-0.3,0-0.5-0.2-0.5-0.5c0-0.3,0.2-0.5,0.5-0.5l4-0.4c0.3,0,0.5,0.2,0.5,0.5&#10;&#9;&#9;c0,0.3-0.2,0.5-0.5,0.5L301,205.9C301,205.9,301,205.9,301,205.9z M308.9,205.2c-0.3,0-0.5-0.2-0.5-0.5c0-0.3,0.2-0.5,0.5-0.5&#10;&#9;&#9;l2.6-0.2c0.3,0,0.5,0.2,0.5,0.5c0,0.3-0.2,0.5-0.5,0.5L308.9,205.2C309,205.2,308.9,205.2,308.9,205.2z" style="fill: rgb(255, 255, 255);" transform="matrix(4.198465824127197, 0, 0, 4.198465824127197, -5, -4)"/>
<g transform="matrix(4.198465824127197, 0, 0, 4.198465824127197, -5, -4)">
		
			<path d="M 258.599997 209.899994 A 5.4 5.4 0 0 1 253.199997 215.299994 A 5.4 5.4 0 0 1 247.799997 209.899994 A 5.4 5.4 0 0 1 253.199997 204.499994 A 5.4 5.4 0 0 1 258.599997 209.899994 Z" transform="matrix(-0.7071 -0.7071 0.7071 -0.7071 283.7857 537.2648)" class="st17" style="fill: rgb(255, 230, 115);"/>
	</g>
<g transform="matrix(4.198465824127197, 0, 0, 4.198465824127197, -5, -4)">
		
			<path d="M 137.799994 25.299999 A 5.4 5.4 0 0 1 132.399994 30.699999 A 5.4 5.4 0 0 1 126.999994 25.299999 A 5.4 5.4 0 0 1 132.399994 19.899999 A 5.4 5.4 0 0 1 137.799994 25.299999 Z" transform="matrix(-0.7071 -0.7071 0.7071 -0.7071 208.1744 136.7365)" class="st4" style="fill: rgb(252, 171, 15);"/>
	</g>
<g transform="matrix(4.198465824127197, 0, 0, 4.198465824127197, -5, -4)">
		
			<path d="M 58.999999 216.100006 A 5.4 5.4 0 0 1 53.599998 221.500006 A 5.4 5.4 0 0 1 48.199998 216.100006 A 5.4 5.4 0 0 1 53.599998 210.700006 A 5.4 5.4 0 0 1 58.999999 216.100006 Z" transform="matrix(-0.7071 -0.7071 0.7071 -0.7071 -61.2708 406.8825)" class="st4" style="fill: rgb(252, 171, 15);"/>
	</g>
<g transform="matrix(4.198465824127197, 0, 0, 4.198465824127197, -5, -4)">
		
			<path d="M 314.500006 204.5 A 2.9 2.9 0 0 1 311.600006 207.4 A 2.9 2.9 0 0 1 308.700006 204.5 A 2.9 2.9 0 0 1 311.600006 201.6 A 2.9 2.9 0 0 1 314.500006 204.5 Z" transform="matrix(-0.707 -0.7072 0.7072 -0.707 387.2602 569.3582)" class="st3" style="fill: rgb(250, 116, 52);"/>
	</g>
<g transform="matrix(4.198465824127197, 0, 0, 4.198465824127197, -5, -4)">
		<path d="M 103.9 17 A 2.9 2.9 0 0 1 101 19.9 A 2.9 2.9 0 0 1 98.1 17 A 2.9 2.9 0 0 1 101 14.1 A 2.9 2.9 0 0 1 103.9 17 Z" transform="matrix(-0.707 -0.7072 0.7072 -0.707 160.4362 100.3736)" class="st3" style="fill: rgb(250, 116, 52);"/>
	</g>
<g transform="matrix(4.198465824127197, 0, 0, 4.198465824127197, -5, -4)">
		
			<path d="M 31.4 204.5 A 2.9 2.9 0 0 1 28.5 207.4 A 2.9 2.9 0 0 1 25.6 204.5 A 2.9 2.9 0 0 1 28.5 201.6 A 2.9 2.9 0 0 1 31.4 204.5 Z" transform="matrix(-0.707 -0.7072 0.7072 -0.707 -95.9754 369.1644)" class="st3" style="fill: rgb(250, 116, 52);"/>
	</g>
<g transform="matrix(4.198465824127197, 0, 0, 4.198465824127197, -5, -4)">
		
			<path d="M 94.999999 208.199997 A 5.4 5.4 0 0 1 89.599998 213.599997 A 5.4 5.4 0 0 1 84.199998 208.199997 A 5.4 5.4 0 0 1 89.599998 202.799997 A 5.4 5.4 0 0 1 94.999999 208.199997 Z" transform="matrix(-0.7071 -0.7071 0.7071 -0.7071 5.7402 418.8386)" class="st4" style="fill: rgb(252, 171, 15);"/>
	</g>
<path d="M 240.299997 179.899994 A 6.1 6.1 0 0 1 234.199997 185.999994 A 6.1 6.1 0 0 1 228.099997 179.899994 A 6.1 6.1 0 0 1 234.199997 173.799994 A 6.1 6.1 0 0 1 240.299997 179.899994 Z" class="st5" style="fill: rgb(248, 233, 211);" transform="matrix(4.198465824127197, 0, 0, 4.198465824127197, -5, -4)"/>
<path d="M 237.699997 179.899994 A 3.5 3.5 0 0 1 234.199997 183.399994 A 3.5 3.5 0 0 1 230.699997 179.899994 A 3.5 3.5 0 0 1 234.199997 176.399994 A 3.5 3.5 0 0 1 237.699997 179.899994 Z" class="st0" style="fill: rgb(56, 52, 75);" transform="matrix(4.198465824127197, 0, 0, 4.198465824127197, -5, -4)"/>
<path d="M 138.499994 213.600006 A 6.1 6.1 0 0 1 132.399994 219.700006 A 6.1 6.1 0 0 1 126.299994 213.600006 A 6.1 6.1 0 0 1 132.399994 207.500006 A 6.1 6.1 0 0 1 138.499994 213.600006 Z" class="st5" style="fill: rgb(248, 233, 211);" transform="matrix(4.198465824127197, 0, 0, 4.198465824127197, -5, -4)"/>
<path d="M 135.899994 213.600006 A 3.5 3.5 0 0 1 132.399994 217.100006 A 3.5 3.5 0 0 1 128.899994 213.600006 A 3.5 3.5 0 0 1 132.399994 210.100006 A 3.5 3.5 0 0 1 135.899994 213.600006 Z" class="st0" style="fill: rgb(56, 52, 75);" transform="matrix(4.198465824127197, 0, 0, 4.198465824127197, -5, -4)"/>
<path d="M 269.899988 105 A 6.1 6.1 0 0 1 263.799988 111.1 A 6.1 6.1 0 0 1 257.699988 105 A 6.1 6.1 0 0 1 263.799988 98.9 A 6.1 6.1 0 0 1 269.899988 105 Z" class="st5" style="fill: rgb(248, 233, 211);" transform="matrix(4.198465824127197, 0, 0, 4.198465824127197, -5, -4)"/>
<path d="M 267.299988 105 A 3.5 3.5 0 0 1 263.799988 108.5 A 3.5 3.5 0 0 1 260.299988 105 A 3.5 3.5 0 0 1 263.799988 101.5 A 3.5 3.5 0 0 1 267.299988 105 Z" class="st0" style="fill: rgb(56, 52, 75);" transform="matrix(4.198465824127197, 0, 0, 4.198465824127197, -5, -4)"/>
<path d="M 113.199998 60.900002 A 6.1 6.1 0 0 1 107.099998 67.000001 A 6.1 6.1 0 0 1 100.999999 60.900002 A 6.1 6.1 0 0 1 107.099998 54.800002 A 6.1 6.1 0 0 1 113.199998 60.900002 Z" class="st5" style="fill: rgb(248, 233, 211);" transform="matrix(4.198465824127197, 0, 0, 4.198465824127197, -5, -4)"/>
<path d="M 110.599998 60.900002 A 3.5 3.5 0 0 1 107.099998 64.400002 A 3.5 3.5 0 0 1 103.599998 60.900002 A 3.5 3.5 0 0 1 107.099998 57.400002 A 3.5 3.5 0 0 1 110.599998 60.900002 Z" class="st0" style="fill: rgb(56, 52, 75);" transform="matrix(4.198465824127197, 0, 0, 4.198465824127197, -5, -4)"/>
<path d="M 250.300003 87.5 A 3.5 3.5 0 0 1 246.800003 91 A 3.5 3.5 0 0 1 243.300003 87.5 A 3.5 3.5 0 0 1 246.800003 84 A 3.5 3.5 0 0 1 250.300003 87.5 Z" class="st5" style="fill: rgb(248, 233, 211);" transform="matrix(4.198465824127197, 0, 0, 4.198465824127197, -5, -4)"/>
<path d="M 248.900003 87.5 A 2.1 2.1 0 0 1 246.800003 89.6 A 2.1 2.1 0 0 1 244.700003 87.5 A 2.1 2.1 0 0 1 246.800003 85.4 A 2.1 2.1 0 0 1 248.900003 87.5 Z" class="st0" style="fill: rgb(56, 52, 75);" transform="matrix(4.198465824127197, 0, 0, 4.198465824127197, -5, -4)"/>
<path d="M 142.399994 41.799999 A 3.5 3.5 0 0 1 138.899994 45.299999 A 3.5 3.5 0 0 1 135.399994 41.799999 A 3.5 3.5 0 0 1 138.899994 38.299999 A 3.5 3.5 0 0 1 142.399994 41.799999 Z" class="st5" style="fill: rgb(248, 233, 211);" transform="matrix(4.198465824127197, 0, 0, 4.198465824127197, -5, -4)"/>
<path d="M 140.999994 41.799999 A 2.1 2.1 0 0 1 138.899994 43.899999 A 2.1 2.1 0 0 1 136.799994 41.799999 A 2.1 2.1 0 0 1 138.899994 39.699999 A 2.1 2.1 0 0 1 140.999994 41.799999 Z" class="st0" style="fill: rgb(56, 52, 75);" transform="matrix(4.198465824127197, 0, 0, 4.198465824127197, -5, -4)"/>
<path d="M 122.199997 194.199997 A 3.5 3.5 0 0 1 118.699997 197.699997 A 3.5 3.5 0 0 1 115.199997 194.199997 A 3.5 3.5 0 0 1 118.699997 190.699997 A 3.5 3.5 0 0 1 122.199997 194.199997 Z" class="st5" style="fill: rgb(248, 233, 211);" transform="matrix(4.198465824127197, 0, 0, 4.198465824127197, -5, -4)"/>
<path d="M 120.799997 194.199997 A 2.1 2.1 0 0 1 118.699997 196.299997 A 2.1 2.1 0 0 1 116.599997 194.199997 A 2.1 2.1 0 0 1 118.699997 192.099997 A 2.1 2.1 0 0 1 120.799997 194.199997 Z" class="st0" style="fill: rgb(56, 52, 75);" transform="matrix(4.198465824127197, 0, 0, 4.198465824127197, -5, -4)"/>

<path d="M 120.55999755859375 125.83999633789062 C 120.55999755859375 126.54000091552734 120.47333526611328 127.163330078125 120.30000305175781 127.70999908447266 C 120.13333129882812 128.2566680908203 119.90333557128906 128.73666381835938 119.61000061035156 129.14999389648438 C 119.31666564941406 129.57000732421875 118.97666931152344 129.92999267578125 118.58999633789062 130.22999572753906 C 118.20999908447266 130.52333068847656 117.80999755859375 130.76666259765625 117.38999938964844 130.9600067138672 C 116.97666931152344 131.15333557128906 116.5566635131836 131.2899932861328 116.12999725341797 131.3699951171875 C 115.70333099365234 131.4566650390625 115.30332946777344 131.5 114.93000030517578 131.5 L 121.29000091552734 137 L 116.58000183105469 137 L 110.22999572753906 131.5 L 108.04000091552734 131.5 L 108.04000091552734 128.4600067138672 L 114.93000030517578 128.4600067138672 C 115.30999755859375 128.42666625976562 115.65666961669922 128.34666442871094 115.97000122070312 128.22000122070312 C 116.29000091552734 128.086669921875 116.5633316040039 127.913330078125 116.79000091552734 127.69999694824219 C 117.02333068847656 127.47999572753906 117.20333099365234 127.21333312988281 117.33000183105469 126.9000015258789 C 117.4566650390625 126.59333038330078 117.52000427246094 126.23999786376953 117.52000427246094 125.83999633789062 L 117.52000427246094 123.91999816894531 C 117.52000427246094 123.74666595458984 117.49666595458984 123.61666870117188 117.44999694824219 123.52999877929688 C 117.41000366210938 123.4366683959961 117.3566665649414 123.37000274658203 117.29000091552734 123.33000183105469 C 117.22333526611328 123.29000091552734 117.15333557128906 123.26333618164062 117.08000183105469 123.25 C 117 123.24333190917969 116.93000030517578 123.23999786376953 116.87000274658203 123.23999786376953 L 106.81999969482422 123.23999786376953 L 106.81999969482422 137 L 103.7699966430664 137 L 103.7699966430664 121.72999572753906 C 103.7699966430664 121.51666259765625 103.80999755859375 121.31666564941406 103.88999938964844 121.12999725341797 C 103.96333312988281 120.94332885742188 104.06999969482422 120.77999877929688 104.20999908447266 120.63999938964844 C 104.34333038330078 120.5 104.50666809082031 120.38999938964844 104.69999694824219 120.30999755859375 C 104.88666534423828 120.23666381835938 105.086669921875 120.19999694824219 105.30000305175781 120.19999694824219 L 116.87000274658203 120.19999694824219 C 117.55000305175781 120.19999694824219 118.12333679199219 120.31999969482422 118.58999633789062 120.55999755859375 C 119.0633316040039 120.80667114257812 119.44667053222656 121.11666870117188 119.73999786376953 121.48999786376953 C 120.03333282470703 121.86333465576172 120.24333190917969 122.26333618164062 120.37000274658203 122.69000244140625 C 120.49666595458984 123.12333679199219 120.55999755859375 123.52666473388672 120.55999755859375 123.9000015258789 L 120.55999755859375 125.83999633789062 ZM 136.77886962890625 128.52999877929688 C 136.77886962890625 128.9499969482422 136.70553588867188 129.40333557128906 136.55886840820312 129.88999938964844 C 136.40553283691406 130.3766632080078 136.16552734375 130.8300018310547 135.8388671875 131.25 C 135.50552368164062 131.6699981689453 135.06886291503906 132.02000427246094 134.52886962890625 132.3000030517578 C 133.9955291748047 132.5800018310547 133.3455352783203 132.72000122070312 132.578857421875 132.72000122070312 L 127.0888671875 132.72000122070312 L 127.0888671875 129.8300018310547 L 132.578857421875 129.8300018310547 C 132.99220275878906 129.8300018310547 133.31219482421875 129.70333862304688 133.5388641357422 129.4499969482422 C 133.76553344726562 129.19667053222656 133.8788604736328 128.8800048828125 133.8788604736328 128.5 C 133.8788604736328 128.10665893554688 133.752197265625 127.79666900634766 133.49887084960938 127.56999969482422 C 133.2455291748047 127.34333038330078 132.93885803222656 127.22999572753906 132.578857421875 127.22999572753906 L 127.0888671875 127.22999572753906 C 126.67552947998047 127.22999572753906 126.35552978515625 127.3566665649414 126.12886047363281 127.61000061035156 C 125.9021987915039 127.86333465576172 125.78886413574219 128.17666625976562 125.78886413574219 128.5500030517578 L 125.78886413574219 132.8000030517578 C 125.78886413574219 133.2066650390625 125.91552734375 133.52333068847656 126.16886138916016 133.75 C 126.42219543457031 133.97666931152344 126.73553466796875 134.08999633789062 127.1088638305664 134.08999633789062 L 132.578857421875 134.08999633789062 L 132.578857421875 137 L 127.0888671875 137 C 126.66220092773438 137 126.20552825927734 136.92666625976562 125.71886444091797 136.77999877929688 C 125.2322006225586 136.6266632080078 124.77886199951172 136.3866729736328 124.3588638305664 136.05999755859375 C 123.9455337524414 135.72666931152344 123.59552764892578 135.2933349609375 123.3088607788086 134.75999450683594 C 123.02886199951172 134.22000122070312 122.88886260986328 133.56666564941406 122.88886260986328 132.8000030517578 L 122.88886260986328 128.52999877929688 C 122.88886260986328 128.10333251953125 122.96219635009766 127.64666748046875 123.1088638305664 127.16000366210938 C 123.26219940185547 126.67333221435547 123.50553131103516 126.22000122070312 123.8388671875 125.80000305175781 C 124.16552734375 125.38666534423828 124.59886169433594 125.03666687011719 125.13886260986328 124.75 C 125.67219543457031 124.47000122070312 126.32219696044922 124.33000183105469 127.0888671875 124.33000183105469 L 132.578857421875 124.33000183105469 C 133.00552368164062 124.33000183105469 133.4622039794922 124.40333557128906 133.94886779785156 124.55000305175781 C 134.43553161621094 124.70333099365234 134.8888702392578 124.94667053222656 135.30886840820312 125.27999877929688 C 135.72219848632812 125.6066665649414 136.07220458984375 126.04000091552734 136.35887145996094 126.58000183105469 C 136.6388702392578 127.11333465576172 136.77886962890625 127.76333618164062 136.77886962890625 128.52999877929688 ZM 151.8118133544922 132.8000030517578 C 151.8118133544922 133.22666931152344 151.7384796142578 133.68333435058594 151.59181213378906 134.1699981689453 C 151.43849182128906 134.6566619873047 151.19515991210938 135.11000061035156 150.86181640625 135.52999877929688 C 150.53515625 135.9499969482422 150.10182189941406 136.3000030517578 149.5618133544922 136.5800018310547 C 149.0284881591797 136.86000061035156 148.37847900390625 137 147.61181640625 137 L 142.121826171875 137 C 141.69515991210938 137 141.2384796142578 136.92666625976562 140.75181579589844 136.77999877929688 C 140.26515197753906 136.6266632080078 139.8118133544922 136.3866729736328 139.39181518554688 136.05999755859375 C 138.97181701660156 135.72666931152344 138.621826171875 135.2933349609375 138.34181213378906 134.75999450683594 C 138.0618133544922 134.22000122070312 137.92181396484375 133.56666564941406 137.92181396484375 132.8000030517578 C 137.92181396484375 132.3800048828125 137.99514770507812 131.92333984375 138.14181518554688 131.42999267578125 C 138.29515075683594 130.94332885742188 138.53515625 130.49000549316406 138.86181640625 130.07000732421875 C 139.1951446533203 129.64999389648438 139.63182067871094 129.3000030517578 140.17181396484375 129.02000427246094 C 140.7051544189453 128.74000549316406 141.3551483154297 128.60000610351562 142.121826171875 128.60000610351562 L 147.61181640625 128.60000610351562 L 147.61181640625 131.5 L 142.121826171875 131.5 C 141.70848083496094 131.5 141.38848876953125 131.6266632080078 141.1618194580078 131.8800048828125 C 140.93515014648438 132.13999938964844 140.8218231201172 132.4566650390625 140.8218231201172 132.8300018310547 C 140.8218231201172 133.22999572753906 140.95181274414062 133.5399932861328 141.21182250976562 133.75999450683594 C 141.47181701660156 133.97999572753906 141.7818145751953 134.08999633789062 142.14181518554688 134.08999633789062 L 147.61181640625 134.08999633789062 C 148.025146484375 134.08999633789062 148.34515380859375 133.96665954589844 148.5718231201172 133.72000122070312 C 148.79849243164062 133.46665954589844 148.9118194580078 133.15333557128906 148.9118194580078 132.77999877929688 L 148.9118194580078 128.52999877929688 C 148.9118194580078 128.1300048828125 148.78848266601562 127.8133316040039 148.5418243408203 127.58000183105469 C 148.30181884765625 127.34666442871094 147.9918212890625 127.22999572753906 147.61181640625 127.22999572753906 L 140.92181396484375 127.22999572753906 L 140.92181396484375 124.33000183105469 L 147.61181640625 124.33000183105469 C 148.03848266601562 124.33000183105469 148.49514770507812 124.40333557128906 148.9818115234375 124.55000305175781 C 149.46849060058594 124.70333099365234 149.92181396484375 124.94667053222656 150.34181213378906 125.27999877929688 C 150.75515747070312 125.6066665649414 151.1051483154297 126.04000091552734 151.39181518554688 126.58000183105469 C 151.67181396484375 127.11333465576172 151.8118133544922 127.76333618164062 151.8118133544922 128.52999877929688 L 151.8118133544922 132.8000030517578 ZM 168.30848693847656 132.72000122070312 C 168.30848693847656 133.24667358398438 168.2418212890625 133.71665954589844 168.10848999023438 134.1300048828125 C 167.97515869140625 134.5500030517578 167.79849243164062 134.9199981689453 167.5784912109375 135.24000549316406 C 167.35848999023438 135.55332946777344 167.1051483154297 135.82000732421875 166.8184814453125 136.0399932861328 C 166.5318145751953 136.26666259765625 166.22848510742188 136.4499969482422 165.90847778320312 136.58999633789062 C 165.59515380859375 136.72999572753906 165.275146484375 136.8333282470703 164.948486328125 136.89999389648438 C 164.621826171875 136.96665954589844 164.31515502929688 137 164.0284881591797 137 L 158.5284881591797 137 C 158.00848388671875 137 157.5418243408203 136.93333435058594 157.12847900390625 136.8000030517578 C 156.71514892578125 136.6666717529297 156.34848022460938 136.49000549316406 156.0284881591797 136.27000427246094 C 155.71514892578125 136.0433349609375 155.4451446533203 135.7866668701172 155.21849060058594 135.5 C 154.9984893798828 135.2133331298828 154.8184814453125 134.91000366210938 154.67848205566406 134.58999633789062 C 154.53848266601562 134.27667236328125 154.43515014648438 133.9566650390625 154.3684844970703 133.6300048828125 C 154.30181884765625 133.30332946777344 154.2684783935547 133 154.2684783935547 132.72000122070312 L 154.2684783935547 128.60000610351562 C 154.2684783935547 127.81999969482422 154.4118194580078 127.15666961669922 154.698486328125 126.61000061035156 C 154.97848510742188 126.06999969482422 155.33181762695312 125.62999725341797 155.75848388671875 125.29000091552734 C 156.18515014648438 124.94999694824219 156.6484832763672 124.70333099365234 157.1484832763672 124.55000305175781 C 157.6484832763672 124.40333557128906 158.10848999023438 124.33000183105469 158.5284881591797 124.33000183105469 L 164.0284881591797 124.33000183105469 L 164.0284881591797 127.37999725341797 L 158.55848693847656 127.37999725341797 C 158.15182495117188 127.37999725341797 157.84181213378906 127.48333740234375 157.62847900390625 127.69000244140625 C 157.42181396484375 127.89666748046875 157.3184814453125 128.1999969482422 157.3184814453125 128.60000610351562 L 157.3184814453125 132.6999969482422 C 157.3184814453125 133.1133270263672 157.42181396484375 133.42666625976562 157.62847900390625 133.63999938964844 C 157.83514404296875 133.84666442871094 158.13514709472656 133.9499969482422 158.5284881591797 133.9499969482422 L 164.0284881591797 133.9499969482422 C 164.4418182373047 133.9499969482422 164.75181579589844 133.84666442871094 164.95848083496094 133.63999938964844 C 165.15847778320312 133.42666625976562 165.25848388671875 133.1199951171875 165.25848388671875 132.72000122070312 L 165.25848388671875 118.97999572753906 L 168.30848693847656 118.97999572753906 L 168.30848693847656 132.72000122070312 ZM 185.17994689941406 138.22000122070312 C 185.17994689941406 138.74000549316406 185.11328125 139.2100067138672 184.97994995117188 139.6300048828125 C 184.84661865234375 140.0500030517578 184.66995239257812 140.4166717529297 184.449951171875 140.72999572753906 C 184.22994995117188 141.0500030517578 183.97662353515625 141.32000732421875 183.68995666503906 141.5399932861328 C 183.40328979492188 141.76666259765625 183.09994506835938 141.9499969482422 182.7799530029297 142.08999633789062 C 182.46661376953125 142.22999572753906 182.1499481201172 142.3333282470703 181.8299560546875 142.39999389648438 C 181.50994873046875 142.46665954589844 181.2032928466797 142.5 180.9099578857422 142.5 L 175.41995239257812 142.5 L 175.41995239257812 139.4499969482422 L 180.9099578857422 139.4499969482422 C 181.31661987304688 139.4499969482422 181.623291015625 139.3433380126953 181.8299560546875 139.1300048828125 C 182.0299530029297 138.92333984375 182.1299591064453 138.6199951171875 182.1299591064453 138.22000122070312 L 182.1299591064453 124.33000183105469 L 185.17994689941406 124.33000183105469 L 185.17994689941406 138.22000122070312 M 180.9099578857422 137 L 175.41995239257812 137 C 174.97994995117188 137 174.51329040527344 136.92666625976562 174.01995849609375 136.77999877929688 C 173.51995849609375 136.6266632080078 173.05662536621094 136.3800048828125 172.6299591064453 136.0399932861328 C 172.19662475585938 135.7066650390625 171.83995056152344 135.26666259765625 171.55995178222656 134.72000122070312 C 171.2799530029297 134.17999267578125 171.13995361328125 133.51333618164062 171.13995361328125 132.72000122070312 L 171.13995361328125 124.33000183105469 L 174.18995666503906 124.33000183105469 L 174.18995666503906 132.72000122070312 C 174.18995666503906 133.1199951171875 174.2932891845703 133.42666625976562 174.4999542236328 133.63999938964844 C 174.71328735351562 133.84666442871094 175.02662658691406 133.9499969482422 175.43995666503906 133.9499969482422 L 180.9099578857422 133.9499969482422 L 180.9099578857422 137 ZM 207.40489196777344 127.37999725341797 L 202.08489990234375 127.37999725341797 L 202.08489990234375 137 L 199.00489807128906 137 L 199.00489807128906 127.37999725341797 L 195.04489135742188 127.37999725341797 L 195.04489135742188 124.33000183105469 L 199.00489807128906 124.33000183105469 L 199.00489807128906 120.19999694824219 L 202.08489990234375 120.19999694824219 L 202.08489990234375 124.33000183105469 L 207.40489196777344 124.33000183105469 L 207.40489196777344 127.37999725341797 ZM 223.1388702392578 132.72000122070312 C 223.1388702392578 133.24667358398438 223.07220458984375 133.71665954589844 222.93885803222656 134.1300048828125 C 222.80552673339844 134.5500030517578 222.6288604736328 134.9199981689453 222.4088592529297 135.24000549316406 C 222.19552612304688 135.55332946777344 221.94219970703125 135.82000732421875 221.64886474609375 136.0399932861328 C 221.36219787597656 136.26666259765625 221.05886840820312 136.4499969482422 220.73886108398438 136.58999633789062 C 220.425537109375 136.72999572753906 220.10552978515625 136.8333282470703 219.77886962890625 136.89999389648438 C 219.4588623046875 136.96665954589844 219.15219116210938 137 218.85885620117188 137 L 213.36886596679688 137 C 212.94219970703125 137 212.47886657714844 136.92666625976562 211.97886657714844 136.77999877929688 C 211.47886657714844 136.6266632080078 211.01885986328125 136.3800048828125 210.59886169433594 136.0399932861328 C 210.1721954345703 135.7066650390625 209.81553649902344 135.26666259765625 209.52886962890625 134.72000122070312 C 209.24220275878906 134.17999267578125 209.09886169433594 133.51333618164062 209.09886169433594 132.72000122070312 L 209.09886169433594 128.60000610351562 C 209.09886169433594 127.81999969482422 209.24220275878906 127.15666961669922 209.52886962890625 126.61000061035156 C 209.81553649902344 126.06999969482422 210.1721954345703 125.62999725341797 210.59886169433594 125.29000091552734 C 211.01885986328125 124.94999694824219 211.47886657714844 124.70333099365234 211.97886657714844 124.55000305175781 C 212.47886657714844 124.40333557128906 212.94219970703125 124.33000183105469 213.36886596679688 124.33000183105469 L 218.85885620117188 124.33000183105469 C 219.64552307128906 124.33000183105469 220.31219482421875 124.47000122070312 220.85885620117188 124.75 C 221.40553283691406 125.03666687011719 221.8455352783203 125.38999938964844 222.17886352539062 125.80999755859375 C 222.51219177246094 126.23666381835938 222.75552368164062 126.69999694824219 222.9088592529297 127.19999694824219 C 223.06219482421875 127.69999694824219 223.1388702392578 128.1666717529297 223.1388702392578 128.60000610351562 L 223.1388702392578 132.72000122070312 M 220.0888671875 128.6199951171875 C 220.0888671875 128.1999969482422 219.98553466796875 127.88666534423828 219.77886962890625 127.68000030517578 C 219.56553649902344 127.47999572753906 219.2588653564453 127.37999725341797 218.85885620117188 127.37999725341797 L 213.3888702392578 127.37999725341797 C 212.98219299316406 127.37999725341797 212.675537109375 127.48333740234375 212.46885681152344 127.69000244140625 C 212.25552368164062 127.89666748046875 212.14886474609375 128.1999969482422 212.14886474609375 128.60000610351562 L 212.14886474609375 132.72000122070312 C 212.14886474609375 133.1199951171875 212.25552368164062 133.42666625976562 212.46885681152344 133.63999938964844 C 212.675537109375 133.84666442871094 212.98219299316406 133.9499969482422 213.3888702392578 133.9499969482422 L 218.85885620117188 133.9499969482422 C 219.27220153808594 133.9499969482422 219.5821990966797 133.84666442871094 219.7888641357422 133.63999938964844 C 219.98886108398438 133.42666625976562 220.0888671875 133.1199951171875 220.0888671875 132.72000122070312 L 220.0888671875 128.6199951171875 ZM 249.3000030517578 137 L 235.40000915527344 137 C 235.18667602539062 137 234.98667907714844 136.9600067138672 234.8000030517578 136.8800048828125 C 234.60667419433594 136.80667114257812 234.44334411621094 136.6999969482422 234.3100128173828 136.55999755859375 C 234.17001342773438 136.42666625976562 234.06333923339844 136.26333618164062 233.99000549316406 136.07000732421875 C 233.91000366210938 135.88333129882812 233.87001037597656 135.67999267578125 233.87001037597656 135.4600067138672 L 233.87001037597656 120.19999694824219 L 236.92001342773438 120.19999694824219 L 236.92001342773438 133.9499969482422 L 249.3000030517578 133.9499969482422 L 249.3000030517578 137 ZM 264.2784729003906 132.8000030517578 C 264.2784729003906 133.22666931152344 264.20513916015625 133.68333435058594 264.0584716796875 134.1699981689453 C 263.9051513671875 134.6566619873047 263.66180419921875 135.11000061035156 263.3284912109375 135.52999877929688 C 263.0018005371094 135.9499969482422 262.5684814453125 136.3000030517578 262.0284729003906 136.5800018310547 C 261.4951477050781 136.86000061035156 260.84515380859375 137 260.0784912109375 137 L 254.58848571777344 137 C 254.16180419921875 137 253.70513916015625 136.92666625976562 253.21847534179688 136.77999877929688 C 252.7318115234375 136.6266632080078 252.27847290039062 136.3866729736328 251.8584747314453 136.05999755859375 C 251.4384765625 135.72666931152344 251.08848571777344 135.2933349609375 250.8084716796875 134.75999450683594 C 250.52847290039062 134.22000122070312 250.3884735107422 133.56666564941406 250.3884735107422 132.8000030517578 C 250.3884735107422 132.3800048828125 250.46180725097656 131.92333984375 250.6084747314453 131.42999267578125 C 250.76181030273438 130.94332885742188 251.00181579589844 130.49000549316406 251.32847595214844 130.07000732421875 C 251.66180419921875 129.64999389648438 252.09848022460938 129.3000030517578 252.6384735107422 129.02000427246094 C 253.17181396484375 128.74000549316406 253.82180786132812 128.60000610351562 254.58848571777344 128.60000610351562 L 260.0784912109375 128.60000610351562 L 260.0784912109375 131.5 L 254.58848571777344 131.5 C 254.17514038085938 131.5 253.8551483154297 131.6266632080078 253.62847900390625 131.8800048828125 C 253.4018096923828 132.13999938964844 253.28848266601562 132.4566650390625 253.28848266601562 132.8300018310547 C 253.28848266601562 133.22999572753906 253.41847229003906 133.5399932861328 253.67848205566406 133.75999450683594 C 253.9384765625 133.97999572753906 254.24847412109375 134.08999633789062 254.6084747314453 134.08999633789062 L 260.0784912109375 134.08999633789062 C 260.4918212890625 134.08999633789062 260.8117980957031 133.96665954589844 261.0384826660156 133.72000122070312 C 261.26513671875 133.46665954589844 261.37847900390625 133.15333557128906 261.37847900390625 132.77999877929688 L 261.37847900390625 128.52999877929688 C 261.37847900390625 128.1300048828125 261.2551574707031 127.8133316040039 261.00848388671875 127.58000183105469 C 260.76849365234375 127.34666442871094 260.4584655761719 127.22999572753906 260.0784912109375 127.22999572753906 L 253.3884735107422 127.22999572753906 L 253.3884735107422 124.33000183105469 L 260.0784912109375 124.33000183105469 C 260.5051574707031 124.33000183105469 260.9618225097656 124.40333557128906 261.448486328125 124.55000305175781 C 261.9351501464844 124.70333099365234 262.38848876953125 124.94667053222656 262.8084716796875 125.27999877929688 C 263.2218017578125 125.6066665649414 263.5718078613281 126.04000091552734 263.8584899902344 126.58000183105469 C 264.13848876953125 127.11333465576172 264.2784729003906 127.76333618164062 264.2784729003906 128.52999877929688 L 264.2784729003906 132.8000030517578 ZM 280.72515869140625 135.4600067138672 C 280.72515869140625 135.67999267578125 280.6851501464844 135.88333129882812 280.60516357421875 136.07000732421875 C 280.5318298339844 136.26333618164062 280.4251708984375 136.42666625976562 280.28515625 136.55999755859375 C 280.1518249511719 136.6999969482422 279.9918212890625 136.80667114257812 279.8051452636719 136.8800048828125 C 279.6251525878906 136.9600067138672 279.4284973144531 137 279.21514892578125 137 L 272.3251647949219 137 C 271.9518127441406 137 271.55181884765625 136.9566650390625 271.1251525878906 136.8699951171875 C 270.698486328125 136.78334045410156 270.27850341796875 136.64666748046875 269.86517333984375 136.4600067138672 C 269.4518127441406 136.26666259765625 269.05181884765625 136.02333068847656 268.6651611328125 135.72999572753906 C 268.27850341796875 135.43666076660156 267.9385070800781 135.0800018310547 267.6451721191406 134.66000366210938 C 267.3584899902344 134.24667358398438 267.12847900390625 133.76333618164062 266.9551696777344 133.2100067138672 C 266.775146484375 132.663330078125 266.6851501464844 132.04666137695312 266.6851501464844 131.36000061035156 L 266.6851501464844 124.33000183105469 L 269.73516845703125 124.33000183105469 L 269.73516845703125 131.36000061035156 C 269.73516845703125 131.75999450683594 269.80181884765625 132.1199951171875 269.9351501464844 132.44000244140625 C 270.0751647949219 132.75332641601562 270.2618408203125 133.02333068847656 270.4951477050781 133.25 C 270.7284851074219 133.47666931152344 271.0051574707031 133.64999389648438 271.3251647949219 133.77000427246094 C 271.63848876953125 133.88999938964844 271.9784851074219 133.9499969482422 272.34515380859375 133.9499969482422 L 277.6751708984375 133.9499969482422 L 277.6751708984375 124.33000183105469 L 280.72515869140625 124.33000183105469 L 280.72515869140625 135.4600067138672 ZM 297.6228942871094 137 L 294.5729064941406 137 L 294.5729064941406 129.97000122070312 C 294.5729064941406 129.57000732421875 294.5062255859375 129.2133331298828 294.3728942871094 128.89999389648438 C 294.2328796386719 128.5800018310547 294.0462341308594 128.30667114257812 293.8128967285156 128.0800018310547 C 293.5795593261719 127.85333251953125 293.3028869628906 127.68000030517578 292.9828796386719 127.55999755859375 C 292.6695556640625 127.44000244140625 292.3295593261719 127.37999725341797 291.962890625 127.37999725341797 L 286.6329040527344 127.37999725341797 L 286.6329040527344 137 L 283.5828857421875 137 L 283.5828857421875 125.83999633789062 C 283.5828857421875 125.63333129882812 283.6228942871094 125.4366683959961 283.702880859375 125.25 C 283.7762145996094 125.06999969482422 283.88623046875 124.91000366210938 284.03289794921875 124.77000427246094 C 284.1728820800781 124.63666534423828 284.3362121582031 124.52999877929688 284.52288818359375 124.44999694824219 C 284.7095642089844 124.37000274658203 284.9062194824219 124.33000183105469 285.1128845214844 124.33000183105469 L 291.9828796386719 124.33000183105469 C 292.36956787109375 124.33000183105469 292.77288818359375 124.37333679199219 293.1929016113281 124.45999908447266 C 293.61956787109375 124.54666900634766 294.04290771484375 124.6866683959961 294.462890625 124.87999725341797 C 294.8829040527344 125.06666564941406 295.28289794921875 125.3066635131836 295.66290283203125 125.5999984741211 C 296.0362243652344 125.8933334350586 296.36956787109375 126.25 296.66290283203125 126.66999816894531 C 296.95623779296875 127.08999633789062 297.1895751953125 127.57333374023438 297.3628845214844 128.1199951171875 C 297.5362243652344 128.6666717529297 297.6228942871094 129.28334045410156 297.6228942871094 129.97000122070312 L 297.6228942871094 137 ZM 312.5606384277344 137 L 304.3006286621094 137 C 303.87396240234375 137 303.4106140136719 136.92666625976562 302.9106140136719 136.77999877929688 C 302.4106140136719 136.6266632080078 301.95062255859375 136.3800048828125 301.5306396484375 136.0399932861328 C 301.1039733886719 135.7066650390625 300.7472839355469 135.26666259765625 300.46063232421875 134.72000122070312 C 300.1739501953125 134.17999267578125 300.0306396484375 133.51333618164062 300.0306396484375 132.72000122070312 L 300.0306396484375 128.60000610351562 C 300.0306396484375 128.30667114257812 300.06396484375 128 300.130615234375 127.68000030517578 C 300.1972961425781 127.36000061035156 300.3006286621094 127.0433349609375 300.44061279296875 126.72999572753906 C 300.58062744140625 126.41000366210938 300.7639465332031 126.1066665649414 300.9906311035156 125.81999969482422 C 301.21063232421875 125.53333282470703 301.4806213378906 125.27999877929688 301.8006286621094 125.05999755859375 C 302.11395263671875 124.83999633789062 302.477294921875 124.663330078125 302.890625 124.52999877929688 C 303.303955078125 124.39666748046875 303.7739562988281 124.33000183105469 304.3006286621094 124.33000183105469 L 312.5606384277344 124.33000183105469 L 312.5606384277344 127.37999725341797 L 304.3006286621094 127.37999725341797 C 303.900634765625 127.37999725341797 303.5972900390625 127.47999572753906 303.390625 127.68000030517578 C 303.1839599609375 127.88666534423828 303.08062744140625 128.1999969482422 303.08062744140625 128.6199951171875 L 303.08062744140625 132.72000122070312 C 303.08062744140625 133.1199951171875 303.1872863769531 133.42666625976562 303.400634765625 133.63999938964844 C 303.6072998046875 133.84666442871094 303.9139709472656 133.9499969482422 304.32061767578125 133.9499969482422 L 312.5606384277344 133.9499969482422 L 312.5606384277344 137 ZM 329.1668395996094 137 L 326.1168518066406 137 L 326.1168518066406 128.60000610351562 C 326.1168518066406 128.1999969482422 326.0135192871094 127.89666748046875 325.8068542480469 127.69000244140625 C 325.6068420410156 127.48333740234375 325.30352783203125 127.37999725341797 324.8968505859375 127.37999725341797 L 319.3968505859375 127.37999725341797 L 319.3968505859375 124.33000183105469 L 324.8968505859375 124.33000183105469 C 325.18353271484375 124.33000183105469 325.4868469238281 124.36333465576172 325.8068542480469 124.43000030517578 C 326.1268615722656 124.49666595458984 326.44683837890625 124.5999984741211 326.766845703125 124.73999786376953 C 327.0801696777344 124.87999725341797 327.3835144042969 125.0633316040039 327.6768493652344 125.29000091552734 C 327.9635314941406 125.51000213623047 328.21685791015625 125.77999877929688 328.4368591308594 126.0999984741211 C 328.6568603515625 126.413330078125 328.8335266113281 126.77666473388672 328.96685791015625 127.19000244140625 C 329.1001892089844 127.60333251953125 329.1668395996094 128.07333374023438 329.1668395996094 128.60000610351562 L 329.1668395996094 137 M 318.1668395996094 137 L 315.1268615722656 137 L 315.1268615722656 118.97999572753906 L 318.1668395996094 118.97999572753906 L 318.1668395996094 137 Z" transform="matrix(2.7475905418395996, 0, 0, 2.7475905418395996, 106.42286682128906, 207.99635314941406)" style="white-space: pre; fill: rgb(74, 69, 99);"/><g transform="matrix(12.748134011920767, 0, 0, 12.748134011920767, 208.9801530700547, 0)"><path id="Path_7" data-name="Path 7" d="M44.629,1896.9c20.551-4.888,58.959,28.731,58.959,46.987s-53.043,34.067-67.837,28.142S24.078,1901.789,44.629,1896.9Z" transform="translate(-26.554 -1896.421)" fill="url(#linear-gradient)" style="fill: rgb(102, 255, 133);"/></g></svg>